<svg height="512" viewBox="0 0 256 256" width="512" xmlns="http://www.w3.org/2000/svg"><g id="Layer_1"><g><path d="m243.949 156.173c-1.566 5.542-6.975 9.673-12.55 9.673h-10.751c-4.687-6.086-12.05-9.995-20.324-9.995-8.285 0-15.648 3.909-20.335 9.995h-57.218c-10.271-13.337-30.395-13.315-40.648 0h-17.658c-5.575 0-9.673-4.132-9.485-9.673 1.773-56.866 54.125-107.218 111.46-107.218 57.35.001 93.761 50.412 77.509 107.218z" fill="#f0c020"/><path d="m232.979 158.351h-127.871c-3.303 0-3.308-5 0-5h126.967c10.398-38.078-6.374-72.239-36.773-85.688-1.263-.559-1.833-2.035-1.274-3.298s2.034-1.834 3.298-1.274c32.913 14.562 50.916 51.641 39.312 92.519-.453 1.589-1.992 2.741-3.659 2.741zm-137.871 0h-29.057c-1.381 0-2.5-1.119-2.5-2.5s1.119-2.5 2.5-2.5h29.058c1.381 0 2.5 1.119 2.5 2.5s-1.12 2.5-2.501 2.5z" fill="#f8e5b0"/><path d="m162.913 71.26c-40.214 0-78.111 32.716-84.48 72.93h145.859c6.369-40.214-21.165-72.93-61.379-72.93z" fill="#efefef"/><path d="m159.532 152.054c-5.1 4.402-12.237 4.402-15.942 0s-2.575-11.54 2.525-15.942 29.603-11.793 29.603-11.793-11.086 23.333-16.186 27.735z" fill="#fc5d3d"/><path d="m128.136 181.529c0 14.193-11.506 25.688-25.688 25.688s-25.677-11.495-25.677-25.688c0-5.909 1.999-11.339 5.353-15.682 10.271-13.337 30.395-13.315 40.648 0 3.364 4.342 5.364 9.773 5.364 15.682z" fill="#72c2e9"/><path d="m102.447 192.779c-6.197 0-11.239-5.047-11.239-11.25 0-6.046 4.878-11.239 11.239-11.239 6.371 0 11.25 5.211 11.25 11.239 0 6.203-5.047 11.25-11.25 11.25z" fill="#7d7b79"/><path d="m226.002 181.529c0 14.193-11.495 25.688-25.677 25.688-14.194 0-25.688-11.495-25.688-25.688 0-5.909 1.999-11.339 5.353-15.682 4.687-6.086 12.05-9.995 20.335-9.995 8.274 0 15.637 3.909 20.324 9.995 3.354 4.342 5.353 9.773 5.353 15.682z" fill="#72c2e9"/><path d="m200.324 192.779c-6.204 0-11.25-5.047-11.25-11.25 0-6.074 4.901-11.239 11.25-11.239 6.388 0 11.239 5.218 11.239 11.239.001 6.203-5.041 11.25-11.239 11.25z" fill="#7d7b79"/><g><path d="m166.47 46.457h-.03c-35.593 0-69.529 18.988-90.979 47.21-.841 1.085-.628 2.678.48 3.5 1.06.81 2.68.59 3.49-.471 0 0 .01 0 .01-.01 21.19-27.899 54.5-45.229 86.95-45.229h.05c56.273.085 90.759 49.06 75.11 104.029-1.18 4.33-5.69 7.86-10.05 7.86-.03 0-.07 0-.101 0h-9.56c-5.523-6.504-13.396-9.99-21.51-9.99h-.011c-8.598 0-16.416 3.923-21.529 9.99h-54.82c-11.294-13.397-31.909-13.239-43.04 0h-16.46c-3.935-.076-6.99-2.505-6.99-7.09.438-14.07 4.211-28.942 11.51-43.05.608-1.178.209-2.699-1.07-3.37-1.2-.62-2.76-.12-3.37 1.069-7.75 14.987-11.597 30.567-12.07 45.141v.01c-.367 6.426 4.588 12.29 11.96 12.29h13.104c-2.149 4.031-3.274 8.508-3.274 13.18 0 4.681 1.17 9.32 3.38 13.4.67 1.233 2.197 1.655 3.39 1.01 1.21-.649 1.66-2.17 1.01-3.38-1.84-3.41-2.78-7.12-2.78-11.03 0-5.16 1.67-10.06 4.83-14.149 13.644-17.718 41.499-7.464 41.54 14.149-.03 12.761-10.43 23.17-23.19 23.19-2.32 0-4.6-.34-6.79-1.01-1.3-.4-2.72.359-3.12 1.659-.415 1.328.352 2.733 1.66 3.12 2.66.82 5.43 1.23 8.25 1.23 15.61 0 28.19-12.64 28.19-28.19 0-4.668-1.129-9.147-3.282-13.18h48.054c-2.151 4.034-3.271 8.515-3.271 13.18 0 15.533 12.533 28.19 28.18 28.19 15.66 0 28.181-12.671 28.181-28.19 0-4.663-1.124-9.142-3.273-13.18h6.172c6.841-.063 13.043-4.883 14.95-11.49 16.705-58-20.625-110.398-79.881-110.398zm33.849 158.259c-12.76-.021-23.159-10.43-23.189-23.19.01-5.17 1.68-10.06 4.84-14.149 4.42-5.74 11.11-9.021 18.35-9.021 12.778 0 23.181 10.355 23.181 23.17-.022 12.761-10.421 23.17-23.182 23.19z"/><path d="m70.41 105.497c1.1.714 2.687.441 3.45-.771.723-1.178.4-2.705-.78-3.45-1.13-.72-2.73-.35-3.45.771-.743 1.174-.389 2.73.78 3.45z"/><path d="m191.7 109.368c.904 1.045 2.48 1.161 3.526.259l15.501-13.382c9.297 12.154 13.643 28.167 11.392 45.441h-15.88c-1.381 0-2.5 1.13-2.5 2.5 0 1.38 1.119 2.5 2.5 2.5h18.05c1.24 0 2.279-.88 2.47-2.109 4.665-29.481-8.284-55.087-30.87-67.591-1.18-.649-2.76-.189-3.399.971-.643 1.129-.305 2.674.97 3.399 5.342 2.966 10.051 6.708 14.049 11.062l-15.55 13.424c-1.045.902-1.161 2.481-.259 3.526z"/><path d="m154.158 146.234.598-.516c1.046-.901 1.162-2.48.26-3.525-.9-1.045-2.48-1.163-3.525-.26l-.598.516c-1.046.901-1.162 2.48-.26 3.525.905 1.049 2.486 1.159 3.525.26z"/><path d="m174.996 121.926c-2.561.772-25.167 7.678-30.515 12.293-6.121 5.284-7.38 14.007-2.805 19.444 4.689 5.57 13.432 5.512 19.489.283 5.344-4.613 15.652-26.117 16.81-28.554.929-1.951-.903-4.089-2.979-3.466zm-17.098 28.236c-4.022 3.475-9.59 3.616-12.396.283-2.822-3.354-1.814-8.936 2.246-12.44 2.841-2.452 13.952-6.561 23.17-9.559-4.386 8.758-10.171 19.257-13.02 21.716z"/><path d="m184.75 77.426c1.335.461 2.725-.27 3.18-1.521.46-1.3-.22-2.72-1.51-3.189 0-.01 0-.01-.01-.01-1.271-.46-2.74.25-3.19 1.52-.47 1.29.21 2.73 1.51 3.19-.001.001.01.01.02.01z"/><path d="m176.399 70.006c-4.35-.83-8.89-1.25-13.489-1.25-41.559.08-80.281 33.508-86.95 75.04-.233 1.538.947 2.89 2.47 2.89h18.06c1.37 0 2.5-1.12 2.5-2.5 0-1.37-1.13-2.5-2.5-2.5h-15.08c3.447-17.426 13.19-33.334 26.393-45.371l10.965 13.028c.889 1.057 2.467 1.191 3.522.304 1.056-.89 1.192-2.467.303-3.522l-11.001-13.071c13.862-11.322 30.934-18.523 48.384-19.226l-2.913 18.395c-.217 1.363.714 2.644 2.078 2.859 1.333.217 2.641-.692 2.859-2.078l3.041-19.199c3.555.108 7.053.469 10.429 1.112 1.33.25 2.66-.66 2.92-1.99.25-1.361-.64-2.671-1.991-2.921z"/><path d="m87.76 199.466c-1.03-.84-2.68-.68-3.52.35-.87 1.07-.72 2.65.35 3.521 1.123.896 2.654.696 3.52-.351.847-1.028.749-2.604-.34-3.5 0-.01 0-.01-.01-.02z"/><path d="m102.447 195.279c7.582 0 13.75-6.168 13.75-13.75 0-7.576-6.168-13.739-13.75-13.739-7.576 0-13.739 6.163-13.739 13.739 0 7.582 6.164 13.75 13.739 13.75zm0-22.489c4.825 0 8.75 3.921 8.75 8.739 0 4.825-3.925 8.75-8.75 8.75-4.819 0-8.739-3.925-8.739-8.75 0-4.819 3.92-8.739 8.739-8.739z"/><path d="m200.324 167.79c-7.582 0-13.75 6.163-13.75 13.739 0 7.582 6.168 13.75 13.75 13.75 7.576 0 13.739-6.168 13.739-13.75 0-7.576-6.163-13.739-13.739-13.739zm0 22.489c-4.825 0-8.75-3.925-8.75-8.75 0-4.818 3.925-8.739 8.75-8.739 4.818 0 8.739 3.921 8.739 8.739 0 4.825-3.92 8.75-8.739 8.75z"/><path d="m54.45 112.816c0-1.38-1.12-2.5-2.49-2.5h-43.75c-1.38 0-2.5 1.12-2.5 2.5s1.12 2.5 2.5 2.5h43.75c1.37 0 2.49-1.12 2.49-2.5z"/><path d="m43.9 127.806h-35.69c-1.38 0-2.5 1.12-2.5 2.5s1.12 2.5 2.5 2.5h35.69c1.38 0 2.5-1.12 2.5-2.5s-1.12-2.5-2.5-2.5z"/><path d="m39.46 145.296h-31.25c-1.38 0-2.5 1.12-2.5 2.5s1.12 2.5 2.5 2.5h31.25c1.38 0 2.5-1.12 2.5-2.5s-1.12-2.5-2.5-2.5z"/></g></g></g></svg>