<svg height="480pt" viewBox="0 0 480 480" width="480pt" xmlns="http://www.w3.org/2000/svg"><path d="m452 208c11.046875 0 20 8.953125 20 20s-8.953125 20-20 20h-140v-40zm0 0" fill="#a78966"/><path d="m456 320v8h-24c-13.253906 0-24-10.746094-24-24s10.746094-24 24-24h24zm0 0" fill="#898890"/><path d="m56 72h368c8.835938 0 16 7.164062 16 16v64c0 8.835938-7.164062 16-16 16h-368c-8.835938 0-16-7.164062-16-16v-64c0-8.835938 7.164062-16 16-16zm0 0" fill="#e0e0e2"/><path d="m400 120c0 13.253906-10.746094 24-24 24s-24-10.746094-24-24 10.746094-24 24-24 24 10.746094 24 24zm0 0" fill="#57565c"/><path d="m112 8h256v64h-256zm0 0" fill="#57a4ff"/><path d="m272 216h40v24h-40zm0 0" fill="#57565c"/><path d="m296 344-88 104 5.601562-16.800781 18.398438-55.199219h-40l24-32h-32l24-48h80l-48 48zm0 0" fill="#ffda44"/><path d="m288 168v32h-96v-32zm0 0" fill="#a78966"/><path d="m272 240v16h-64v-56h64zm0 0" fill="#e0e0e2"/><path d="m448 424h-40v-32c-.027344-8.824219-7.175781-15.972656-16-16h-24v-128h-56v-8h-40v16h-64v-56h-16v-32h-80v208h-24c-8.824219.027344-15.972656 7.175781-16 16v32h-40c-13.253906 0-24 10.746094-24 24s10.746094 24 24 24h416c13.253906 0 24-10.746094 24-24s-10.746094-24-24-24zm-240 24 5.601562-16.800781 18.398438-55.199219h-40l24-32h-32l24-48h80l-48 48h56zm0 0" fill="#898890"/><path d="m312 208h56v-40h-80v32h-16v16h40zm0 0" fill="#898890"/><g fill="#57565c"><path d="m208 120c0 8.835938-7.164062 16-16 16s-16-7.164062-16-16 7.164062-16 16-16 16 7.164062 16 16zm0 0"/><path d="m152 120c0 8.835938-7.164062 16-16 16s-16-7.164062-16-16 7.164062-16 16-16 16 7.164062 16 16zm0 0"/><path d="m96 120c0 8.835938-7.164062 16-16 16s-16-7.164062-16-16 7.164062-16 16-16 16 7.164062 16 16zm0 0"/></g><path d="m80 96c-13.253906 0-24 10.746094-24 24s10.746094 24 24 24 24-10.746094 24-24-10.746094-24-24-24zm0 32c-4.417969 0-8-3.582031-8-8s3.582031-8 8-8 8 3.582031 8 8-3.582031 8-8 8zm0 0"/><path d="m136 144c13.253906 0 24-10.746094 24-24s-10.746094-24-24-24-24 10.746094-24 24 10.746094 24 24 24zm0-32c4.417969 0 8 3.582031 8 8s-3.582031 8-8 8-8-3.582031-8-8 3.582031-8 8-8zm0 0"/><path d="m192 144c13.253906 0 24-10.746094 24-24s-10.746094-24-24-24-24 10.746094-24 24 10.746094 24 24 24zm0-32c4.417969 0 8 3.582031 8 8s-3.582031 8-8 8-8-3.582031-8-8 3.582031-8 8-8zm0 0"/><path d="m376 152c17.671875 0 32-14.328125 32-32s-14.328125-32-32-32-32 14.328125-32 32 14.328125 32 32 32zm0-48c8.835938 0 16 7.164062 16 16s-7.164062 16-16 16-16-7.164062-16-16 7.164062-16 16-16zm0 0"/><path d="m248 96h32v16h-32zm0 0"/><path d="m288 96h32v16h-32zm0 0"/><path d="m248 128h32v16h-32zm0 0"/><path d="m288 128h32v16h-32zm0 0"/><path d="m400 48h16v-16h16v-16h-16v-16h-16v16h-16v16h16zm0 0"/><path d="m464 40v-16h-16v16h-16v16h16v16h16v-16h16v-16zm0 0"/><path d="m64 48h16v-16h16v-16h-16v-16h-16v16h-16v16h16zm0 0"/><path d="m16 72h16v-16h16v-16h-16v-16h-16v16h-16v16h16zm0 0"/><path d="m296 336h-36.6875l34.34375-34.34375c2.285156-2.289062 2.972656-5.730469 1.734375-8.71875s-4.15625-4.9375-7.390625-4.9375h-80c-3.03125 0-5.804688 1.710938-7.160156 4.425781l-24 48c-1.238282 2.480469-1.105469 5.425781.351562 7.78125 1.460938 2.359375 4.035156 3.792969 6.808594 3.792969h16l-14.398438 19.199219c-1.820312 2.425781-2.113281 5.667969-.757812 8.378906s4.125 4.421875 7.15625 4.421875h28.894531l-20.480469 61.472656c-1.207031 3.636719.332032 7.621094 3.671876 9.5 3.34375 1.878906 7.546874 1.121094 10.027343-1.804687l88-104c2.011719-2.378907 2.460938-5.710938 1.148438-8.535157-1.3125-2.828124-4.144531-4.636718-7.261719-4.632812zm-67.273438 75.121094 10.859376-32.59375c.808593-2.4375.402343-5.117188-1.101563-7.203125-1.5-2.085938-3.914063-3.324219-6.484375-3.324219h-24l14.398438-19.199219c1.820312-2.425781 2.113281-5.667969.757812-8.378906s-4.125-4.421875-7.15625-4.421875h-19.054688l16-32h55.742188l-34.34375 34.34375c-2.285156 2.289062-2.972656 5.730469-1.734375 8.71875s4.15625 4.9375 7.390625 4.9375h38.753906zm0 0"/><path d="m452 256c15.464844 0 28-12.535156 28-28s-12.535156-28-28-28h-76v-24h48c13.253906 0 24-10.746094 24-24v-64c0-13.253906-10.746094-24-24-24h-48v-56c0-4.417969-3.582031-8-8-8h-256c-4.417969 0-8 3.582031-8 8v56h-48c-13.253906 0-24 10.746094-24 24v64c0 13.253906 10.746094 24 24 24h48v192h-16c-13.253906 0-24 10.746094-24 24v24h-32c-17.671875 0-32 14.328125-32 32s14.328125 32 32 32h416c17.671875 0 32-14.328125 32-32s-14.328125-32-32-32h-32v-24c0-13.253906-10.746094-24-24-24h-16v-16h16c4.417969 0 8-3.582031 8-8v-32h1.136719c3.636719 14.085938 16.316406 23.945312 30.863281 24h24c4.417969 0 8-3.582031 8-8h16v-16h-16v-16h16v-16h-16c0-4.417969-3.582031-8-8-8h-24c-14.546875.054688-27.226562 9.914062-30.863281 24h-9.136719c-4.417969 0-8 3.582031-8 8v32h-8v-80zm-20 32h16v32h-16c-8.835938 0-16-7.164062-16-16s7.164062-16 16-16zm32-60c0 6.628906-5.371094 12-12 12h-132v-24h132c6.628906 0 12 5.371094 12 12zm-104-28h-48c-4.417969 0-8 3.582031-8 8h-16c4.417969 0 8-3.582031 8-8v-24h64zm-56 32h-24v-8h24zm-88 16v-40h48v40zm64-56h-80v-16h80zm-160-176h240v48h-240zm-72 136v-64c0-4.417969 3.582031-8 8-8h368c4.417969 0 8 3.582031 8 8v64c0 4.417969-3.582031 8-8 8h-368c-4.417969 0-8-3.582031-8-8zm312 216h-56v16h88c4.417969 0 8 3.582031 8 8v24h-136v16h184c8.835938 0 16 7.164062 16 16s-7.164062 16-16 16h-416c-8.835938 0-16-7.164062-16-16s7.164062-16 16-16h160v-16h-112v-24c0-4.417969 3.582031-8 8-8h80v-16h-48v-192h64v24c0 4.417969 3.582031 8 8 8h8v48c0 4.417969 3.582031 8 8 8h8v16h16v-16h16v16h16v-16h8c4.417969 0 8-3.582031 8-8v-8h24c0 4.417969 3.582031 8 8 8h48zm0 0"/></svg>