<?xml version="1.0" encoding="utf-8"?>
<!-- Generator: Adobe Illustrator 25.0.1, SVG Export Plug-In . SVG Version: 6.00 Build 0)  -->
<svg version="1.1" id="Capa_1" xmlns="http://www.w3.org/2000/svg" xmlns:xlink="http://www.w3.org/1999/xlink" x="0px" y="0px"
	 viewBox="0 0 481.9 453.5" style="enable-background:new 0 0 481.9 453.5;" xml:space="preserve">
<style type="text/css">
	.st0{fill:#9EABD3;}
	.st1{fill:#F4B78E;}
	.st2{fill:#F8B78F;}
	.st3{fill:#4B140D;}
	.st4{fill:#FCC3A2;}
	.st5{fill:#29323D;}
	.st6{fill:#040D18;}
	.st7{fill:#EBEBEC;}
	.st8{fill:#939598;}
	.st9{fill:none;stroke:#FFFFFF;stroke-width:0.8439;stroke-linecap:round;stroke-linejoin:round;stroke-miterlimit:10;}
	.st10{fill:#1D2B4F;}
	.st11{fill:#EC524F;}
	.st12{fill:#3C698B;}
	.st13{fill:#D1D3D4;}
	.st14{fill:#552E49;}
	.st15{opacity:0.5;fill:#F4B78E;}
	.st16{fill:#504986;}
	.st17{fill:#5F56A5;}
	.st18{fill:#645CA8;}
	.st19{enable-background:new    ;}
	.st20{fill:#503065;}
	.st21{fill:#613E7A;}
	.st22{fill:#5F3D78;}
	.st23{clip-path:url(#SVGID_2_);enable-background:new    ;}
	.st24{fill:#744E92;}
	.st25{fill:#623F7C;}
	.st26{fill:#287986;}
	.st27{clip-path:url(#SVGID_4_);enable-background:new    ;}
	.st28{clip-path:url(#SVGID_6_);enable-background:new    ;}
	.st29{fill:#348F9E;}
	.st30{clip-path:url(#SVGID_8_);enable-background:new    ;}
	.st31{clip-path:url(#SVGID_10_);enable-background:new    ;}
	.st32{fill:#297C89;}
	.st33{clip-path:url(#SVGID_12_);enable-background:new    ;}
	.st34{clip-path:url(#SVGID_14_);enable-background:new    ;}
	.st35{clip-path:url(#SVGID_16_);enable-background:new    ;}
	.st36{fill:#43AEC0;}
	.st37{clip-path:url(#SVGID_18_);enable-background:new    ;}
	.st38{fill:#693634;}
	.st39{fill:#582526;}
	.st40{fill:#142B4E;}
	.st41{fill:#CADE70;}
	.st42{fill:#554F49;}
	.st43{fill:#7C9EC2;}
	.st44{fill:#FFFFFF;}
	.st45{fill:#DD957C;}
</style>
<g>
	<path class="st0" d="M460.4,355.6c0,11.4-25.5,20.6-57.1,20.6c-31.5,0-57.1-9.2-57.1-20.6c0-11.4,25.5-20.6,57.1-20.6
		C434.9,335,460.4,344.2,460.4,355.6z"/>
	<g>
		<path class="st1" d="M398.2,190.7l-9.2,26.7c0,0,1.4,4.6-3.4,8.8l-18.9,21.3l-3.9-2.8l16.1-26.7l7.4-30.4c0,0,1-9.3,8-7.2
			C394.3,180.5,401.1,181.7,398.2,190.7z"/>
		<g>
			<path class="st2" d="M360.7,251.3c-0.6-0.2-1.6,1.4-3.5,0.4c1-2,1.7-3.1,2.2-3.5c0.6-0.6,1-0.5,1.9-0.4c0.7,0.1,1.4,0.4,2.1,0.4
				c0.7,0,2.2-1.4,2.8-1.8l0.8,0.5c0,0-1.4,3.5-2.9,5.9L360.7,251.3z"/>
			<path class="st2" d="M356.4,248.7c0.9-1,2.7-3,3-3.1l2.8-1l1.5-1.2c1.2,1.6,2.4,2.9,2.4,2.9c-1.9,1.8-2.2,2.3-2.2,2.3
				s-1,0.9-3.5,0l-1.2-0.3C359.3,248.4,357.6,250.1,356.4,248.7z"/>
			<path class="st2" d="M364.6,252.1c0.4-0.7-0.3-0.9-0.3-0.9c-0.7-0.4-1,0.2-1,0.2l0.2-0.3c0-0.4-0.6-0.6-0.6-0.6
				c-0.7-0.3-1,0.4-1,0.4l0.3-0.6c0.1-0.4-0.6-0.7-0.6-0.7c-0.8-0.3-1.1,0.3-1.1,0.3l-0.2,0.2c0,0-1.2-1.4-2.5,0.7l-0.6,0.9
				c0,0,0.5,0.9,1.9,0.4c0,0,0.6,1.1,1.7,0.6c0,0,0.6,0.7,1.5,0.4c0,0,0.8,0.8,1.3,0.3L364.6,252.1z"/>
		</g>
		<path class="st3" d="M394.1,136.5l-2.2,26.7c0,0,0.1,5.3-6.5,7.8c0,0,22.7,4.2,24.4-7.2C409.8,163.7,409.7,137.5,394.1,136.5z"/>
		<g>
			<path class="st4" d="M391.9,346l0.5,4.2l-14.8,5.2c0,0-2.6,0.9-1,2.1c0,0,3.2,2.2,7.9,0l10.1-4.5l2.4-0.9l-0.1-6.3L391.9,346z"/>
			<g>
				<path class="st5" d="M397.2,352l-2.6,1.2l-9.9,4.3c-4.7,2.2-7.9-0.1-7.9-0.1c-1.7-1.2,0.8-2.2,0.8-2.2l3.6-1.5l9.9-4.3l-0.2-1.9
					c0,0-0.1-0.8,0.9-0.9l2.9,0.2c0,0,1.1,0.3,0.8,1.2l-0.4,1.1l2.2-1L397.2,352"/>
				<path class="st6" d="M383.8,354.8l10.8-4.8l0.2-1l0.4-1.1c0.3-0.9-0.8-1.2-0.8-1.2l-2.9-0.2c-1,0.1-0.9,0.9-0.9,0.9l0.2,1.9
					l-9.9,4.3l-2,0.8C379.1,354.4,380.5,356.3,383.8,354.8z"/>
				<path class="st7" d="M376.1,356.5c0,0-0.3,0.9,0.4,1.9c0,0,3.6,2.6,7.9,0.4l12.8-5.6l-0.1-1.3l-13.9,5.6
					C383.3,357.5,378.8,359.2,376.1,356.5z"/>
				<path class="st8" d="M383.5,355.5c0,0.3-0.2,0.5-0.5,0.5c-0.3,0-0.5-0.2-0.5-0.5c0-0.3,0.2-0.5,0.5-0.5
					C383.3,355,383.5,355.2,383.5,355.5z"/>
				<path class="st8" d="M385.8,354.5c0,0.3-0.2,0.5-0.5,0.5c-0.3,0-0.5-0.2-0.5-0.5c0-0.3,0.2-0.5,0.5-0.5
					C385.5,354,385.7,354.2,385.8,354.5z"/>
				<path class="st8" d="M387.7,353.6c0,0.3-0.2,0.5-0.5,0.5c-0.3,0-0.5-0.2-0.5-0.5c0-0.3,0.2-0.5,0.5-0.5
					C387.4,353.1,387.6,353.4,387.7,353.6z"/>
				<path class="st8" d="M389.6,352.7c0,0.3-0.2,0.5-0.5,0.5c-0.3,0-0.5-0.2-0.5-0.5c0-0.3,0.2-0.5,0.5-0.5
					C389.3,352.2,389.5,352.4,389.6,352.7z"/>
				<path class="st8" d="M391.8,351.8c0,0.3-0.2,0.5-0.5,0.5c-0.3,0-0.5-0.2-0.5-0.5c0-0.3,0.2-0.5,0.5-0.5
					C391.5,351.3,391.8,351.5,391.8,351.8z"/>
				<path class="st8" d="M393.6,350.9c0,0.3-0.2,0.5-0.5,0.5c-0.3,0-0.5-0.2-0.5-0.5c0-0.3,0.2-0.5,0.5-0.5
					C393.3,350.4,393.6,350.6,393.6,350.9z"/>
				<g>
					<path class="st9" d="M382.8,352.8c0,0,1.5,0,2.5,1.6"/>
					<path class="st9" d="M384.7,351.9c0,0,1.5,0,2.5,1.6"/>
					<path class="st9" d="M386.5,350.9c0,0,1.5,0,2.5,1.6"/>
					<path class="st9" d="M388.8,350.1c0,0,1.5,0,2.5,1.6"/>
					<path class="st9" d="M390.5,349.3c0,0,1.5,0,2.5,1.6"/>
					<path class="st9" d="M380.6,353.8c0,0,1.5,0,2.5,1.6"/>
				</g>
			</g>
		</g>
		<path class="st10" d="M397.8,347.5c-4.2,1.9-7.8,0.2-7.8,0.2l-3-62.2l-0.5-49.3l23.4-2.4c-2.4,12.2-4.4,23.9-6.1,36.3
			c-0.9,6.4-2.8,14-3.2,20.9c0,0,1.9,17.2-0.8,38l-1.5,18.6"/>
		<g>
			<path class="st4" d="M413.5,347.9l0.5,4.2l-14.8,5.2c0,0-2.6,0.9-1,2.1c0,0,3.2,2.2,7.9,0.1l10.1-4.5l2.4-0.9l-0.1-6.3
				L413.5,347.9z"/>
			<g>
				<path class="st11" d="M418.8,353.9l-2.6,1.2l-9.9,4.3c-4.7,2.2-7.9-0.1-7.9-0.1c-1.7-1.2,0.8-2.2,0.8-2.2l3.6-1.5l9.9-4.3
					l-0.2-1.9c0,0-0.1-0.8,0.9-0.9l2.9,0.2c0,0,1.1,0.3,0.8,1.2l-0.4,1.1l2.2-1L418.8,353.9"/>
				<path class="st8" d="M405.5,356.7l10.8-4.8l0.2-1l0.4-1.1c0.3-0.9-0.8-1.2-0.8-1.2l-2.9-0.2c-1,0.1-0.9,0.9-0.9,0.9l0.2,1.9
					l-9.9,4.3l-2,0.8C400.7,356.4,402.1,358.3,405.5,356.7z"/>
				<path class="st7" d="M397.8,358.4c0,0-0.3,0.9,0.4,1.9c0,0,3.6,2.6,7.9,0.4l12.8-5.6l-0.1-1.3l-13.9,5.6
					C404.9,359.4,400.5,361.1,397.8,358.4z"/>
				<path class="st8" d="M405.2,357.4c0,0.3-0.2,0.5-0.5,0.5c-0.3,0-0.5-0.2-0.5-0.5c0-0.3,0.2-0.5,0.5-0.5
					C404.9,356.9,405.2,357.1,405.2,357.4z"/>
				<path class="st8" d="M407.4,356.4c0,0.3-0.2,0.5-0.5,0.5c-0.3,0-0.5-0.2-0.5-0.5c0-0.3,0.2-0.5,0.5-0.5
					C407.2,356,407.4,356.2,407.4,356.4z"/>
				<path class="st8" d="M409.3,355.6c0,0.3-0.2,0.5-0.5,0.5c-0.3,0-0.5-0.2-0.5-0.5c0-0.3,0.2-0.5,0.5-0.5
					C409,355.1,409.3,355.3,409.3,355.6z"/>
				<path class="st8" d="M411.2,354.6c0,0.3-0.2,0.5-0.5,0.5c-0.3,0-0.5-0.2-0.5-0.5c0-0.3,0.2-0.5,0.5-0.5
					C411,354.2,411.2,354.4,411.2,354.6z"/>
				<path class="st8" d="M413.5,353.7c0,0.3-0.2,0.5-0.5,0.5c-0.3,0-0.5-0.2-0.5-0.5c0-0.3,0.2-0.5,0.5-0.5
					C413.2,353.2,413.4,353.4,413.5,353.7z"/>
				<path class="st8" d="M415.3,352.8c0,0.3-0.2,0.5-0.5,0.5c-0.3,0-0.5-0.2-0.5-0.5c0-0.3,0.2-0.5,0.5-0.5
					C415,352.3,415.2,352.5,415.3,352.8z"/>
				<g>
					<path class="st9" d="M404.4,354.7c0,0,1.5,0,2.5,1.6"/>
					<path class="st9" d="M406.3,353.9c0,0,1.5,0,2.5,1.6"/>
					<path class="st9" d="M408.2,352.9c0,0,1.5,0,2.5,1.6"/>
					<path class="st9" d="M410.5,352.1c0,0,1.5,0,2.5,1.6"/>
					<path class="st9" d="M412.2,351.2c0,0,1.5,0,2.5,1.6"/>
					<path class="st9" d="M402.2,355.7c0,0,1.5,0,2.5,1.6"/>
				</g>
			</g>
		</g>
		<g>
			<path class="st4" d="M391.9,346l0.5,4.2l-14.8,5.2c0,0-2.6,0.9-1,2.1c0,0,3.2,2.2,7.9,0l10.1-4.5l2.4-0.9l-0.1-6.3L391.9,346z"/>
			<g>
				<path class="st11" d="M397.2,352l-2.6,1.2l-9.9,4.3c-4.7,2.2-7.9-0.1-7.9-0.1c-1.7-1.2,0.8-2.2,0.8-2.2l3.6-1.5l9.9-4.3
					l-0.2-1.9c0,0-0.1-0.8,0.9-0.9l2.9,0.2c0,0,1.1,0.3,0.8,1.2l-0.4,1.1l2.2-1L397.2,352"/>
				<path class="st8" d="M383.8,354.8l10.8-4.8l0.2-1l0.4-1.1c0.3-0.9-0.8-1.2-0.8-1.2l-2.9-0.2c-1,0.1-0.9,0.9-0.9,0.9l0.2,1.9
					l-9.9,4.3l-2,0.8C379.1,354.4,380.5,356.3,383.8,354.8z"/>
				<path class="st7" d="M376.1,356.5c0,0-0.3,0.9,0.4,1.9c0,0,3.6,2.6,7.9,0.4l12.8-5.6l-0.1-1.3l-13.9,5.6
					C383.3,357.5,378.8,359.2,376.1,356.5z"/>
				<path class="st8" d="M383.5,355.5c0,0.3-0.2,0.5-0.5,0.5c-0.3,0-0.5-0.2-0.5-0.5c0-0.3,0.2-0.5,0.5-0.5
					C383.3,355,383.5,355.2,383.5,355.5z"/>
				<path class="st8" d="M385.8,354.5c0,0.3-0.2,0.5-0.5,0.5c-0.3,0-0.5-0.2-0.5-0.5c0-0.3,0.2-0.5,0.5-0.5
					C385.5,354,385.7,354.2,385.8,354.5z"/>
				<path class="st8" d="M387.7,353.6c0,0.3-0.2,0.5-0.5,0.5c-0.3,0-0.5-0.2-0.5-0.5c0-0.3,0.2-0.5,0.5-0.5
					C387.4,353.1,387.6,353.4,387.7,353.6z"/>
				<path class="st8" d="M389.6,352.7c0,0.3-0.2,0.5-0.5,0.5c-0.3,0-0.5-0.2-0.5-0.5c0-0.3,0.2-0.5,0.5-0.5
					C389.3,352.2,389.5,352.4,389.6,352.7z"/>
				<path class="st8" d="M391.8,351.8c0,0.3-0.2,0.5-0.5,0.5c-0.3,0-0.5-0.2-0.5-0.5c0-0.3,0.2-0.5,0.5-0.5
					C391.5,351.3,391.8,351.5,391.8,351.8z"/>
				<path class="st8" d="M393.6,350.9c0,0.3-0.2,0.5-0.5,0.5c-0.3,0-0.5-0.2-0.5-0.5c0-0.3,0.2-0.5,0.5-0.5
					C393.3,350.4,393.6,350.6,393.6,350.9z"/>
				<g>
					<path class="st9" d="M382.8,352.8c0,0,1.5,0,2.5,1.6"/>
					<path class="st9" d="M384.7,351.9c0,0,1.5,0,2.5,1.6"/>
					<path class="st9" d="M386.5,350.9c0,0,1.5,0,2.5,1.6"/>
					<path class="st9" d="M388.8,350.1c0,0,1.5,0,2.5,1.6"/>
					<path class="st9" d="M390.5,349.3c0,0,1.5,0,2.5,1.6"/>
					<path class="st9" d="M380.6,353.8c0,0,1.5,0,2.5,1.6"/>
				</g>
			</g>
		</g>
		<path class="st12" d="M389.8,343.7c0,0-0.4,0-0.4,0.5l0.2,2.8c0,0-0.1,0.6,0.3,0.7c0,0,3.2,1.9,8.2-0.3c0,0,0.5-0.1,0.5-0.8
			l-0.1-2.6c0,0,0.2-0.8-0.5-0.7C398.1,343.3,394.8,344.8,389.8,343.7z"/>
		<path class="st13" d="M400.3,265.9c-1.3-9.2-0.6-5.9-1.6-11.7c-2-12.2-7.2-7.4-12.2-17.4l23-2.1l-6.5,39.3
			C401.2,271,400.6,267.6,400.3,265.9z"/>
		<path class="st12" d="M389.8,343.7c0,0-0.4,0-0.4,0.5l0.2,2.8c0,0-0.1,0.6,0.3,0.7c0,0,3.2,1.9,8.2-0.3c0,0,0.5-0.1,0.5-0.8
			l-0.1-2.6c0,0,0.2-0.8-0.5-0.7C398.1,343.3,394.8,344.8,389.8,343.7z"/>
		<g>
			<path class="st10" d="M419.3,351.4c0.5-6.2,1.1-11,1.6-17.2c2.7-20.8-3.4-40.6-3.4-40.6l0.2-8l6.3-37.8
				c2.5-12.3-2.4-21.6-2.4-21.6l-22.6,0.5l4.3,56.5l0.7,7.7l7.1,60.8c0,0,3.6,1.7,7.8-0.2"/>
			<path class="st12" d="M411,347.7c0,0-0.4,0-0.4,0.5l0.3,2.8c0,0-0.1,0.6,0.3,0.7c0,0,3.2,1.9,8.2-0.3c0,0,0.5-0.1,0.5-0.8
				l-0.1-2.6c0,0,0.2-0.8-0.5-0.7C419.3,347.3,416,348.9,411,347.7z"/>
		</g>
		<path class="st1" d="M403.4,170.3c-1.7-0.8-3.5-1.6-5.4-2.2c-1.2-0.4-2.4-0.6-3.6-0.6c-2.8,0-3.7,3-4.2,5.2
			c-0.3,1.3-0.4,2.7-0.6,4c-0.3,1.5-1.4,2.9-1.6,4.3c0,0-4.8,8.6-1.3,14.5l4.5,5.8l-3.8,31.8c19.9,8,36.1,3.2,36.1,3.2
			c2.1-7.4-4.6-23.9-2.9-19c0.7,2.1-1.7-4.5-1.4-7.6c0.6-5.3,5.1-15.1,5.6-20.5c0.3-4.2,1.2-6.2-1.2-8.1c-3-2.3-7.2-4.8-10.2-6.1
			L403.4,170.3z"/>
		<path class="st14" d="M394.4,167.6c0,0-4.8-0.6-7.2,9.1l-4.7,18c0,0-0.2,4.5,10.7,5.4C393.3,200.1,401.7,170.4,394.4,167.6z"/>
		<rect x="403.4" y="160.3" class="st1" width="10" height="20.2"/>
		<path class="st15" d="M403.4,171v-10.7h10v6.1C413.4,166.4,411.6,167.6,403.4,171z"/>
		<path class="st1" d="M418.2,161.8c7.2-5,10.3-25.3-3.2-30.5c-9.8-3.7-20.9,4.1-18.7,14.8c0.5,2.4-0.8,4.6-1,7
			c-0.4,3.7,0.3,7.2,2.5,12.2c1.6,3.9,7.9,1.4,11.2,0.6C412.2,165.2,415.4,163.8,418.2,161.8z"/>
		<path class="st14" d="M423.6,181.2c2.5,1.9,1.6,3.9,1.2,8.1c-0.4,5.4-5,15.3-5.6,20.5c-0.3,3,2.1,9.7,1.4,7.6
			c-1.7-4.8,7.5,15.9,5.4,23.3c0,0-26.7,9.2-39.6-4.7l4.3-34.4l-4-6.1c-3.6-5.9,1.3-14.5,1.3-14.5c0.2-1.4,1.3-2.8,1.6-4.3
			c0.2-1.3,0.4-2.7,0.6-4c0.5-2.3,1.4-5.3,4.2-5.2c1.2,0,2.4,0.2,3.6,0.6c0,0,3.2,1,4.9,1.9c0,0-2.7,4.1,2.4,6.5
			c0,0,5.5,3.2,8.7-1.2C414,175.4,421.4,178.9,423.6,181.2z"/>
		<path class="st3" d="M416,151.8c-0.4-0.4-1-0.7-1.2-1.2c-2.6-4.6-3.2-11.4-3.2-11.4l8.2-5.7c0,0,11.8,8,3.3,23l-3.9,5.2
			c-0.9,0.7-2,1.3-3.1,1.6c-1-6.4-0.3-2.9,0.4-8.2C416.5,155,417.2,153,416,151.8z"/>
		<path class="st3" d="M395.6,150.6c0,0-2.4-10.4-1.1-14.9c3.7-8.6,14.7-7.8,14.7-7.8c9.3,0.6,10.7,5.6,10.7,5.6l-8.2,5.7
			c-0.7-2.4-3.6-3.2-5.7-3.5c-5.6-0.9-4.7,3.6-9.6,7.6c0,0,0.2,4.4,0.2,4.4S396.1,149.6,395.6,150.6z"/>
		<path class="st13" d="M390.8,201.8l-4-6.1c-3.6-5.9,1.3-14.5,1.3-14.5c0.2-1.4,1.3-2.8,1.6-4.3c0.2-1.3,0.4-2.7,0.6-4
			c0.2-0.9,0.4-1.9,0.9-2.8c0.3,3.3,0.1,6.5-0.9,9.9c-1,3.2-2.4,6.6-2.3,10.1c0.1,2.4,0.5,5.2,3,6.4c2.7,1.2,5.7,1.8,8.4,2.8
			c5.5,2,13.1,4.7,18.5,1c3.9-2.6,5.4-7.1,6.9-11.4c0,0.2,0,0.4-0.1,0.6c-0.4,5.4-4.9,15.2-5.5,20.5c-0.3,2.4,1.2,6.9,1.5,7.8
			c0-0.1,0-0.1-0.1-0.2c-1.7-4.8,7.5,15.8,5.4,23.3c0,0-26.7,9.2-39.6-4.7L390.8,201.8z"/>
		<path class="st3" d="M411.6,138.4l-2.2,26.7c0,0,0.5,6.6-7.5,11.1c0,0,23.7,0.9,25.4-10.6c0,0,2.1-15-2.9-26.8
			C422.8,135.1,416.2,138.7,411.6,138.4z"/>
	</g>
	<g>
		<g>
			<g>
				<path class="st16" d="M254.2,323.7l-42.5-26.3c7.6,4.7,10,13.3,8.1,27.4l42.5,26.3C264.2,337,261.8,328.3,254.2,323.7z"/>
				<path class="st16" d="M338.6,200.5c0.7-0.5,1.5-1,2.2-1.6c0,0,0.1,0,0.1-0.1c0.1-0.1,0.2-0.2,0.3-0.2c0.6-0.5,1.3-1,1.9-1.5
					c0.2-0.2,0.4-0.3,0.6-0.5c0.8-0.7,1.6-1.3,2.4-2l-42.5-26.3c-0.8,0.7-1.6,1.4-2.4,2c-0.2,0.2-0.4,0.4-0.6,0.5
					c-0.7,0.5-1.3,1-1.9,1.5c-0.1,0.1-0.2,0.2-0.4,0.3c-0.8,0.6-1.5,1.1-2.2,1.6c-0.2,0.1-0.4,0.2-0.5,0.3c-0.6,0.4-1.2,0.8-1.8,1.1
					c-0.2,0.1-0.3,0.2-0.5,0.3c-0.4,0.2-0.8,0.4-1.2,0.6c-0.2,0.1-0.3,0.2-0.5,0.3c-0.6,0.3-1.1,0.5-1.7,0.8
					c-0.6,0.2-1.2,0.4-1.7,0.6c-0.4,0.1-0.8,0.2-1.2,0.3c-0.4,0.1-0.7,0.2-1.1,0.2c-0.4,0.1-0.8,0.1-1.2,0.2c-0.3,0-0.7,0.1-1,0.1
					c-0.4,0-0.8,0-1.1,0c-0.3,0-0.7,0-1,0c-0.4,0-0.8-0.1-1.1-0.1c-0.3,0-0.7-0.1-1-0.1c-0.3-0.1-0.6-0.1-0.8-0.2
					c-0.4-0.1-0.7-0.2-1.1-0.3c-0.3-0.1-0.6-0.2-0.8-0.3c-0.4-0.2-0.8-0.3-1.2-0.5c-0.2-0.1-0.4-0.2-0.5-0.3c-0.6-0.3-1.2-0.6-1.8-1
					l42.5,26.3c0.6,0.4,1.2,0.7,1.8,1c0.2,0.1,0.4,0.2,0.5,0.2c0.2,0.1,0.5,0.2,0.7,0.3c0.2,0.1,0.4,0.1,0.5,0.2
					c0.3,0.1,0.5,0.2,0.8,0.3c0.4,0.1,0.8,0.2,1.1,0.3c0.3,0.1,0.5,0.1,0.8,0.2c0.1,0,0.2,0.1,0.3,0.1c0.2,0,0.5,0,0.7,0.1
					c0.4,0,0.7,0.1,1.1,0.1c0.3,0,0.7,0,1,0c0.4,0,0.7,0,1.1,0c0.3,0,0.7-0.1,1-0.1c0.4-0.1,0.8-0.1,1.1-0.2
					c0.4-0.1,0.7-0.2,1.1-0.2c0.4-0.1,0.8-0.2,1.2-0.3c0.2,0,0.3-0.1,0.5-0.1c0.4-0.1,0.9-0.3,1.3-0.5c0.6-0.2,1.1-0.5,1.7-0.8
					c0.2-0.1,0.4-0.2,0.6-0.3c0.4-0.2,0.8-0.4,1.1-0.6c0.1,0,0.1-0.1,0.2-0.1c0.1-0.1,0.2-0.1,0.3-0.2c0.6-0.3,1.2-0.7,1.8-1.1
					C338.2,200.7,338.4,200.6,338.6,200.5z"/>
				<path class="st16" d="M201.4,232.9c0.1,0.1,0.1,0.3,0.2,0.4c0.4,0.8,0.7,1.5,1.1,2.3c0,0.1,0.1,0.2,0.1,0.3
					c0.3,0.8,0.6,1.6,0.9,2.4c0.1,0.2,0.1,0.3,0.2,0.5c0.2,0.8,0.4,1.6,0.6,2.4c0,0.1,0,0.2,0,0.3c0.1,0.7,0.2,1.5,0.3,2.2
					c0,0.1,0,0.3,0,0.4c0.1,0.8,0.1,1.5,0,2.3c0,0.2,0,0.3,0,0.5c0,0.8-0.1,1.6-0.2,2.3c0,0,0,0,0,0c-0.1,0.8-0.3,1.6-0.5,2.3
					c0,0.2-0.1,0.3-0.1,0.5c-0.2,0.8-0.5,1.5-0.8,2.2c-0.1,0.2-0.1,0.3-0.2,0.5c-0.3,0.6-0.6,1.3-0.9,1.9c-0.1,0.2-0.2,0.4-0.3,0.6
					c-0.4,0.8-0.8,1.5-1.3,2.3c-0.1,0.1-0.2,0.3-0.3,0.4c-0.4,0.6-0.9,1.3-1.3,1.9c-0.2,0.3-0.4,0.5-0.6,0.8c-0.5,0.6-1,1.2-1.5,1.9
					c-0.2,0.2-0.3,0.4-0.5,0.6c-0.5,0.6-1.1,1.2-1.6,1.8c-0.3,0.3-0.5,0.6-0.8,0.9c-0.9,0.9-1.8,1.8-2.7,2.7l42.5,26.3
					c1-0.9,1.9-1.8,2.7-2.7c0.3-0.3,0.6-0.6,0.8-0.9c0.5-0.5,1-1.1,1.5-1.6c0-0.1,0.1-0.1,0.1-0.2c0.2-0.2,0.3-0.4,0.5-0.6
					c0.5-0.6,1-1.3,1.5-1.9c0.2-0.3,0.4-0.5,0.6-0.8c0.2-0.2,0.4-0.5,0.5-0.7c0.3-0.4,0.6-0.8,0.8-1.3c0.1-0.1,0.2-0.2,0.2-0.4
					c0.4-0.6,0.8-1.3,1.1-1.9c0.1-0.1,0.1-0.3,0.2-0.4c0.1-0.2,0.2-0.4,0.3-0.6c0.3-0.6,0.6-1.3,0.9-1.9c0.1-0.2,0.1-0.3,0.2-0.5
					c0-0.1,0.1-0.2,0.1-0.2c0.3-0.7,0.5-1.3,0.7-2c0-0.2,0.1-0.3,0.1-0.5c0.2-0.8,0.4-1.6,0.5-2.3l0,0c0.1-0.8,0.2-1.6,0.2-2.4
					c0-0.2,0-0.3,0-0.5c0-0.8,0-1.5,0-2.3c0-0.1,0-0.3,0-0.4c-0.1-0.7-0.2-1.5-0.3-2.2c0-0.1,0-0.2,0-0.3c-0.2-0.8-0.4-1.6-0.6-2.4
					c-0.1-0.2-0.1-0.4-0.2-0.5c-0.2-0.8-0.5-1.6-0.9-2.4c0-0.1-0.1-0.2-0.1-0.3c-0.3-0.8-0.7-1.5-1.1-2.3c-0.1-0.2-0.1-0.3-0.2-0.5
					c-0.4-0.8-0.9-1.7-1.4-2.5c-0.1-0.2-0.2-0.4-0.3-0.5c-0.5-0.9-1.1-1.8-1.7-2.7l-42.5-26.3c0.6,0.9,1.2,1.8,1.7,2.7
					c0.1,0.2,0.2,0.4,0.3,0.5C200.5,231.2,200.9,232,201.4,232.9z"/>
				<path class="st16" d="M282.5,211c0.2-0.6,0.3-1.1,0.5-1.7c0.1-0.3,0.2-0.7,0.3-1c0.2-0.6,0.3-1.3,0.5-1.9
					c0.1-0.3,0.1-0.6,0.2-0.9c0.2-1,0.4-2,0.6-3L242,176.1c-0.2,1-0.4,2-0.6,3c-0.1,0.3-0.1,0.6-0.2,0.9c-0.2,0.7-0.3,1.3-0.5,1.9
					c-0.1,0.4-0.2,0.7-0.3,1c-0.2,0.6-0.3,1.1-0.5,1.7c-0.1,0.3-0.2,0.7-0.3,1c-0.2,0.5-0.4,1.1-0.6,1.6c-0.1,0.3-0.2,0.6-0.3,0.9
					c-0.2,0.6-0.5,1.1-0.7,1.7c-0.1,0.2-0.2,0.4-0.3,0.6c-0.3,0.7-0.7,1.4-1.1,2.1c0,0.1-0.1,0.2-0.1,0.2c-0.5,0.8-1,1.6-1.5,2.4
					c-0.1,0.2-0.2,0.3-0.3,0.5c-0.5,0.7-1,1.3-1.5,1.9c-0.1,0.1-0.2,0.2-0.3,0.3c-0.4,0.4-0.8,0.9-1.2,1.3c-0.2,0.2-0.3,0.3-0.5,0.5
					c-0.4,0.4-0.9,0.7-1.3,1.1c-0.2,0.1-0.3,0.2-0.5,0.4c-0.7,0.5-1.4,1-2.1,1.4c-0.2,0.1-0.3,0.2-0.5,0.3c-0.8,0.5-1.7,0.9-2.6,1.2
					c-0.8,0.3-1.6,0.6-2.5,0.8c-0.4,0.1-0.9,0.3-1.3,0.4c-0.7,0.2-1.4,0.3-2.1,0.4c-0.4,0.1-0.9,0.2-1.3,0.2
					c-0.8,0.1-1.7,0.2-2.5,0.3c-0.4,0-0.8,0.1-1.2,0.1c-1.3,0.1-2.7,0.1-4.1,0.1l42.5,26.3c1.4,0,2.8,0,4.1-0.1
					c0.4,0,0.8-0.1,1.2-0.1c0.9-0.1,1.7-0.1,2.5-0.3c0.5-0.1,0.9-0.2,1.4-0.2c0.7-0.1,1.4-0.3,2.1-0.4c0.5-0.1,0.9-0.2,1.3-0.4
					c0.4-0.1,0.8-0.2,1.1-0.3c0.5-0.2,0.9-0.3,1.4-0.5c0.9-0.4,1.7-0.8,2.6-1.2c0.1-0.1,0.2-0.1,0.3-0.1c0.1,0,0.1-0.1,0.2-0.1
					c0.7-0.4,1.4-0.9,2.1-1.4c0,0,0.1-0.1,0.1-0.1c0.1-0.1,0.2-0.2,0.3-0.3c0.4-0.3,0.9-0.7,1.3-1.1c0.1-0.1,0.2-0.2,0.3-0.2
					c0.1-0.1,0.1-0.2,0.2-0.2c0.4-0.4,0.8-0.8,1.2-1.3c0.1-0.1,0.2-0.2,0.2-0.3c0,0,0-0.1,0.1-0.1c0.5-0.6,1-1.2,1.5-1.9
					c0-0.1,0.1-0.1,0.1-0.2c0.1-0.1,0.1-0.2,0.2-0.3c0.5-0.8,1-1.5,1.5-2.4c0-0.1,0.1-0.1,0.1-0.2c0,0,0-0.1,0-0.1
					c0.4-0.7,0.7-1.4,1.1-2.1c0.1-0.2,0.2-0.4,0.2-0.5c0.3-0.6,0.5-1.2,0.7-1.8c0-0.1,0.1-0.2,0.1-0.2c0.1-0.2,0.1-0.4,0.2-0.6
					c0.2-0.5,0.4-1.1,0.6-1.6C282.3,211.7,282.4,211.4,282.5,211z"/>
			</g>
			<path class="st16" d="M311.7,352.8l-42.5-26.3c3.1,1.9,6.2,4.7,9.3,8.5l42.5,26.3C317.8,357.6,314.8,354.7,311.7,352.8z"/>
			<path class="st16" d="M378.2,233.4c0.9,0.2,1.9,0.5,3,0.6c0,0,0,0,0.1,0c0.1,0,0.2,0,0.3,0c0.9,0.1,1.8,0.2,2.7,0.3
				c0.3,0,0.6,0.1,0.8,0.1c1.1,0.1,2.1,0.2,3.3,0.2l-42.5-26.3c-1.1,0-2.2-0.1-3.3-0.2c-0.3,0-0.6,0-0.8-0.1
				c-0.9-0.1-1.8-0.2-2.7-0.3c-0.1,0-0.2,0-0.4-0.1c-1-0.2-2-0.4-2.9-0.6c-0.2-0.1-0.4-0.1-0.6-0.2c-0.9-0.3-1.8-0.5-2.6-0.9
				c-0.4-0.1-0.7-0.3-1.1-0.5c-0.2-0.1-0.4-0.2-0.5-0.2c-0.5-0.2-1-0.5-1.4-0.8c0,0,0,0,0,0c0,0,0,0,0,0l42.5,26.3c0,0,0,0,0.1,0
				c0.5,0.3,0.9,0.5,1.4,0.8c0.2,0.1,0.4,0.2,0.6,0.2c0.3,0.1,0.6,0.3,0.9,0.4c0,0,0.1,0,0.1,0c0.8,0.3,1.7,0.6,2.6,0.9
				C377.7,233.3,377.9,233.4,378.2,233.4z"/>
			<path class="st16" d="M354.3,285.8c0.3-1,0.6-2.1,0.8-3.1c0-0.2,0.1-0.4,0.1-0.6c0.2-1,0.4-2,0.6-3c0-0.1,0-0.2,0.1-0.4
				c0.2-1.1,0.3-2.1,0.4-3.2c0-0.2,0-0.5,0.1-0.7c0.1-1.1,0.1-2.1,0.2-3.2c0-0.1,0-0.3,0-0.4c0-1,0-2-0.1-3c0-0.2,0-0.4,0-0.6
				c-0.1-1.1-0.2-2.1-0.3-3.2c0-0.2-0.1-0.4-0.1-0.7c-0.2-1.1-0.4-2.2-0.6-3.2c-2.5-10.7-8.5-18.9-16.5-23.9
				c-14.2-8.8-28.4-17.5-42.5-26.3c8,5,14.1,13.2,16.5,23.9c0.2,1.1,0.4,2.2,0.6,3.2c0,0.2,0.1,0.4,0.1,0.7c0.1,1.1,0.3,2.1,0.3,3.2
				c0,0.2,0,0.4,0,0.6c0.1,1,0.1,2,0.1,3c0,0.1,0,0.3,0,0.4c0,1.1-0.1,2.1-0.2,3.2c0,0.2,0,0.5-0.1,0.7c-0.1,1.1-0.2,2.1-0.4,3.2
				c0,0.1,0,0.2-0.1,0.4c-0.2,1-0.4,2-0.6,3c0,0.2-0.1,0.4-0.1,0.6c-0.2,1-0.5,2.1-0.8,3.1c-0.1,0.2-0.1,0.4-0.2,0.7
				c-0.3,1-0.7,2-1,3c0,0,0,0.1-0.1,0.1c-0.4,1-0.8,2.1-1.3,3.1c-0.1,0.2-0.2,0.4-0.3,0.6c-0.5,1-1,2-1.5,2.9
				c-0.1,0.2-0.2,0.4-0.4,0.6c-0.3,0.6-0.7,1.2-1.1,1.8c-0.1,0.2-0.3,0.5-0.4,0.7c-0.5,0.8-1,1.5-1.5,2.2c0,0.1-0.1,0.1-0.1,0.2
				c-0.5,0.7-1,1.4-1.5,2c-0.2,0.2-0.4,0.5-0.5,0.7c-0.4,0.5-0.8,0.9-1.1,1.4c-0.2,0.2-0.4,0.5-0.6,0.7c-0.4,0.4-0.8,0.9-1.2,1.3
				c-0.2,0.2-0.4,0.4-0.6,0.6c-0.5,0.5-1,1-1.6,1.5c-0.1,0.1-0.2,0.2-0.3,0.3c-0.6,0.6-1.3,1.2-2,1.8c-0.2,0.2-0.4,0.3-0.6,0.5
				c-0.5,0.4-1,0.8-1.5,1.2c-0.2,0.2-0.5,0.3-0.7,0.5c-0.7,0.5-1.3,1-2,1.4c-0.1,0.1-0.3,0.2-0.4,0.3c-0.8,0.5-1.6,1-2.5,1.5
				c-0.2,0.1-0.5,0.3-0.7,0.4c-0.6,0.3-1.2,0.7-1.9,1c-0.2,0.1-0.5,0.2-0.7,0.4c-0.8,0.4-1.7,0.8-2.6,1.1c-0.8,0.3-1.6,0.6-2.4,0.9
				c-0.3,0.1-0.6,0.2-0.9,0.3c-0.5,0.2-1,0.3-1.6,0.5c-0.3,0.1-0.7,0.2-1,0.3c-0.5,0.1-0.9,0.2-1.4,0.3c-0.4,0.1-0.7,0.1-1.1,0.2
				c-0.5,0.1-0.9,0.2-1.4,0.2c-0.4,0.1-0.7,0.1-1.1,0.1c-0.4,0.1-0.9,0.1-1.3,0.2c-0.4,0-0.7,0.1-1.1,0.1c-0.4,0-0.9,0.1-1.3,0.1
				c-0.4,0-0.7,0-1.1,0c-0.4,0-0.9,0-1.3,0c-0.4,0-0.7,0-1.1,0c-0.4,0-0.8-0.1-1.3-0.1c-0.3,0-0.7-0.1-1-0.1c-0.4,0-0.8-0.1-1.2-0.2
				c-0.4-0.1-0.7-0.1-1.1-0.2c-0.3-0.1-0.6-0.1-0.9-0.2c-0.4-0.1-0.8-0.2-1.1-0.3c-0.3-0.1-0.6-0.2-0.9-0.2
				c-0.4-0.1-0.7-0.2-1.1-0.3c-0.3-0.1-0.6-0.2-0.9-0.3c-0.4-0.1-0.7-0.3-1.1-0.4c-0.3-0.1-0.6-0.2-0.9-0.3
				c-0.2-0.1-0.5-0.2-0.7-0.3c-0.6-0.3-1.2-0.5-1.8-0.8c-0.2-0.1-0.5-0.2-0.7-0.3c-0.8-0.4-1.5-0.8-2.3-1.3c0,0,0,0,0,0l42.5,26.3
				c0.7,0.5,1.5,0.9,2.3,1.3c0.2,0.1,0.4,0.2,0.7,0.3c0.6,0.3,1.2,0.6,1.8,0.8c0.1,0.1,0.3,0.1,0.4,0.2c0.1,0,0.2,0.1,0.3,0.1
				c0.3,0.1,0.6,0.2,0.8,0.3c0.4,0.1,0.7,0.3,1.1,0.4c0.3,0.1,0.6,0.2,0.9,0.3c0.4,0.1,0.8,0.2,1.1,0.3c0.3,0.1,0.6,0.2,0.9,0.2
				c0.4,0.1,0.8,0.2,1.2,0.3c0.3,0.1,0.6,0.1,0.9,0.2c0.2,0,0.3,0.1,0.5,0.1c0.2,0,0.4,0,0.6,0.1c0.4,0.1,0.8,0.1,1.2,0.2
				c0.3,0,0.7,0.1,1,0.1c0.4,0,0.8,0.1,1.3,0.1c0.3,0,0.7,0,1.1,0c0.4,0,0.9,0,1.3,0c0.4,0,0.7,0,1.1,0c0.4,0,0.9,0,1.3-0.1
				c0.3,0,0.7,0,1-0.1c0.5,0,0.9-0.1,1.4-0.2c0.3,0,0.7-0.1,1-0.1c0.5-0.1,1-0.2,1.4-0.3c0.3-0.1,0.7-0.1,1-0.2
				c0.5-0.1,1-0.2,1.5-0.4c0.3-0.1,0.6-0.1,0.9-0.2c0.6-0.2,1.2-0.4,1.8-0.6c0.2-0.1,0.4-0.1,0.6-0.2c0,0,0,0,0.1,0
				c0.8-0.3,1.6-0.6,2.5-0.9c0.9-0.4,1.7-0.7,2.6-1.1c0.2-0.1,0.5-0.2,0.7-0.4c0.6-0.3,1.3-0.6,1.9-1c0.2-0.1,0.3-0.2,0.5-0.2l0,0
				c0.1,0,0.2-0.1,0.2-0.1c0.8-0.5,1.7-1,2.5-1.5c0.1-0.1,0.2-0.2,0.3-0.2c0.7-0.5,1.4-1,2.1-1.5c0.1-0.1,0.2-0.1,0.3-0.2
				c0.1-0.1,0.2-0.2,0.3-0.3c0.5-0.4,1-0.8,1.5-1.2c0.2-0.2,0.4-0.3,0.6-0.5c0.7-0.6,1.3-1.2,2-1.8c0,0,0,0,0,0
				c0.1-0.1,0.2-0.2,0.3-0.3c0.5-0.5,1-1,1.6-1.5c0.2-0.2,0.4-0.4,0.6-0.6c0.4-0.4,0.8-0.9,1.2-1.3c0.1-0.1,0.2-0.2,0.3-0.4
				c0.1-0.1,0.2-0.2,0.3-0.4c0.4-0.5,0.8-0.9,1.2-1.4c0.2-0.2,0.3-0.4,0.5-0.6c0.5-0.7,1.1-1.4,1.6-2.1c0,0,0,0,0,0c0,0,0,0,0-0.1
				c0.5-0.8,1-1.5,1.5-2.3c0.1-0.2,0.3-0.5,0.4-0.7c0.4-0.6,0.7-1.2,1.1-1.9c0.1-0.1,0.2-0.3,0.2-0.4c0-0.1,0.1-0.1,0.1-0.2
				c0.5-1,1-1.9,1.5-2.9c0.1-0.2,0.2-0.4,0.3-0.6c0.5-1,0.9-2.1,1.3-3.1c0,0,0,0,0,0c0,0,0-0.1,0-0.1c0.4-1,0.7-2,1-3
				C354.2,286.2,354.2,286,354.3,285.8z"/>
			<g>
				<path class="st17" d="M388.2,234.7c1.4,3.6,2.6,7.3,3.5,11.2c0.8,3.6,1.4,7.2,1.7,10.8c-16.2,16.1-18.1,28.6-6.5,44.1
					c-2.9,7.3-6.6,14.3-11,20.8c-5.9,0.2-10.9,1-15.1,2.7c-10.1,4.1-15.5,12.9-18.2,28.2c-3.4,1.9-7,3.7-10.7,5.2
					c-3.7,1.5-7.4,2.7-11,3.6c-8.8-10.6-17.1-13.8-27.1-9.8c-4.1,1.7-8.6,4.6-13.4,8.8c-6.5-2.2-12.6-5.2-18.1-9.2
					c2.8-21.1-4.1-30.1-23.7-31.6c-1.3-3.3-2.3-6.7-3.2-10.4c-0.9-4-1.5-8-1.8-12.1c15.9-15,17.9-27.4,6.9-43.5
					c2.9-7.3,6.7-14.3,11.2-20.8c5.9,0.1,10.9-0.7,15.1-2.4c9.6-3.9,14.9-12.7,17.7-27.9c3.4-1.9,6.9-3.6,10.6-5.1
					c3.6-1.5,7.3-2.6,10.9-3.6c8.5,10.7,16.6,14.1,26.2,10.2c4.2-1.7,8.8-4.8,13.8-9.4c6.4,2.1,12.4,5.1,17.9,8.9
					C361.3,225.3,368.2,234.1,388.2,234.7z M323.4,320.4c23.1-9.3,37.4-36.1,31.9-59.8c-5.4-23.7-28.6-35.4-51.7-26
					c-23.1,9.3-37.4,36.1-31.9,59.8C277.2,318.1,300.3,329.7,323.4,320.4"/>
			</g>
			<g>
				<path class="st18" d="M351.8,196.7c1.1,0.5,2.3,1,3.4,1.6c0.4,0.2,0.9,0.4,1.3,0.6c1.4,0.8,2.9,1.5,4.2,2.4c0,0,0,0,0,0
					c0,0,0,0,0,0l-12.3-7.6c-10.1-6.2-20.2-12.5-30.3-18.7c-1.4-0.9-2.8-1.7-4.3-2.4c-0.4-0.2-0.8-0.4-1.3-0.6
					c-1.1-0.6-2.3-1.1-3.4-1.6c-0.3-0.1-0.5-0.3-0.8-0.4c-0.1-0.1-0.3-0.1-0.4-0.2c-1.5-0.6-2.9-1.1-4.5-1.6l42.5,26.3
					c1.5,0.5,3,1,4.5,1.6C351,196.3,351.4,196.5,351.8,196.7z"/>
				<path class="st18" d="M233.6,297l-42.5-26.3c0.3,4.1,0.9,8.1,1.8,12.1c0.8,3.6,1.9,7.1,3.2,10.4l42.5,26.3
					c-1.3-3.3-2.3-6.7-3.2-10.4C234.5,305.1,233.9,301,233.6,297z"/>
				<path class="st18" d="M302,194.9c0.3-0.1,0.7-0.2,1-0.3c1-0.3,2-0.6,3-0.8l-42.5-26.3c-1,0.3-2,0.5-3,0.8
					c-0.3,0.1-0.6,0.2-1,0.3c-0.7,0.2-1.4,0.4-2.1,0.7c-0.2,0.1-0.3,0.1-0.5,0.2c-0.2,0.1-0.3,0.1-0.5,0.2c-1.3,0.4-2.6,0.9-3.8,1.4
					c-3.7,1.5-7.2,3.2-10.6,5.1l42.5,26.3c3.4-1.9,6.9-3.6,10.6-5.1c1.3-0.5,2.5-1,3.8-1.4c0.3-0.1,0.7-0.2,1-0.3
					C300.7,195.3,301.3,195.1,302,194.9z"/>
				<path class="st18" d="M245.7,242.4c0.6-1.1,1.2-2.2,1.9-3.3c0.3-0.5,0.6-1.1,1-1.6c1-1.6,2-3.2,3.1-4.8l-42.5-26.3
					c-1.1,1.6-2.1,3.2-3.1,4.8c-0.3,0.5-0.6,1.1-1,1.7c-0.6,1-1.2,1.9-1.7,2.9c-0.1,0.1-0.1,0.2-0.2,0.4c-0.7,1.2-1.3,2.4-1.9,3.7
					c-0.3,0.6-0.6,1.2-0.9,1.8c-0.9,1.9-1.7,3.7-2.5,5.6l42.5,26.3c0.8-1.9,1.6-3.8,2.5-5.6c0.3-0.6,0.6-1.2,0.9-1.8
					C244.5,244.8,245.1,243.6,245.7,242.4z"/>
			</g>
		</g>
		<g>
			<g class="st19">
				<g>
					<path class="st20" d="M309.4,165.7l-23.5-14.6c4.2,2.6,5.5,7.4,4.5,15.1l23.5,14.6C314.9,173.1,313.6,168.3,309.4,165.7z"/>
					<path class="st20" d="M356.1,97.6c0.4-0.3,0.8-0.6,1.2-0.9c0,0,0,0,0,0c0.1,0,0.1-0.1,0.2-0.1c0.4-0.3,0.7-0.6,1.1-0.9
						c0.1-0.1,0.2-0.2,0.3-0.3c0.4-0.4,0.9-0.7,1.3-1.1l-23.5-14.6c-0.4,0.4-0.9,0.8-1.3,1.1c-0.1,0.1-0.2,0.2-0.4,0.3
						c-0.4,0.3-0.7,0.6-1.1,0.8c-0.1,0.1-0.1,0.1-0.2,0.2c-0.4,0.3-0.8,0.6-1.2,0.9c-0.1,0.1-0.2,0.1-0.3,0.2
						c-0.3,0.2-0.7,0.4-1,0.6c-0.1,0.1-0.2,0.1-0.3,0.2c-0.2,0.1-0.5,0.2-0.7,0.4c-0.1,0-0.2,0.1-0.3,0.1c-0.3,0.2-0.6,0.3-0.9,0.4
						c-0.3,0.1-0.6,0.2-1,0.3c-0.2,0.1-0.4,0.1-0.7,0.2c-0.2,0-0.4,0.1-0.6,0.1c-0.2,0-0.4,0.1-0.6,0.1c-0.2,0-0.4,0.1-0.6,0.1
						c-0.2,0-0.4,0-0.6,0c-0.2,0-0.4,0-0.6,0c-0.2,0-0.4,0-0.6-0.1c-0.2,0-0.4,0-0.6-0.1c-0.2,0-0.3-0.1-0.5-0.1
						c-0.2-0.1-0.4-0.1-0.6-0.2c-0.2,0-0.3-0.1-0.5-0.2c-0.2-0.1-0.5-0.2-0.7-0.3c-0.1,0-0.2-0.1-0.3-0.1c-0.3-0.2-0.7-0.3-1-0.5
						l23.5,14.6c0.3,0.2,0.7,0.4,1,0.5c0.1,0,0.2,0.1,0.3,0.1c0.1,0.1,0.3,0.1,0.4,0.2c0.1,0,0.2,0.1,0.3,0.1
						c0.2,0.1,0.3,0.1,0.5,0.2c0.2,0.1,0.4,0.1,0.6,0.2c0.1,0,0.3,0.1,0.4,0.1c0.1,0,0.1,0,0.2,0c0.1,0,0.3,0,0.4,0
						c0.2,0,0.4,0,0.6,0.1c0.2,0,0.4,0,0.6,0c0.2,0,0.4,0,0.6,0c0.2,0,0.4,0,0.6-0.1c0.2,0,0.4-0.1,0.6-0.1c0.2,0,0.4-0.1,0.6-0.1
						c0.2-0.1,0.4-0.1,0.7-0.2c0.1,0,0.2,0,0.3-0.1c0.2-0.1,0.5-0.2,0.7-0.3c0.3-0.1,0.6-0.3,0.9-0.4c0.1-0.1,0.2-0.1,0.3-0.2
						c0.2-0.1,0.4-0.2,0.6-0.3c0,0,0.1,0,0.1-0.1c0.1,0,0.1-0.1,0.2-0.1c0.3-0.2,0.7-0.4,1-0.6C355.8,97.7,356,97.6,356.1,97.6z"/>
					<path class="st20" d="M280.1,115.5c0,0.1,0.1,0.2,0.1,0.2c0.2,0.4,0.4,0.9,0.6,1.3c0,0.1,0.1,0.1,0.1,0.2
						c0.2,0.5,0.3,0.9,0.5,1.3c0,0.1,0.1,0.2,0.1,0.3c0.1,0.4,0.2,0.9,0.3,1.3c0,0.1,0,0.1,0,0.2c0.1,0.4,0.1,0.8,0.2,1.2
						c0,0.1,0,0.2,0,0.2c0,0.4,0,0.8,0,1.3c0,0.1,0,0.2,0,0.3c0,0.4-0.1,0.9-0.1,1.3c0,0,0,0,0,0c-0.1,0.4-0.2,0.9-0.3,1.3
						c0,0.1,0,0.2-0.1,0.3c-0.1,0.4-0.3,0.8-0.4,1.2c0,0.1-0.1,0.2-0.1,0.3c-0.1,0.3-0.3,0.7-0.5,1c-0.1,0.1-0.1,0.2-0.2,0.3
						c-0.2,0.4-0.5,0.8-0.7,1.3c0,0.1-0.1,0.2-0.2,0.2c-0.2,0.4-0.5,0.7-0.7,1.1c-0.1,0.1-0.2,0.3-0.3,0.4c-0.3,0.3-0.5,0.7-0.8,1
						c-0.1,0.1-0.2,0.2-0.3,0.3c-0.3,0.3-0.6,0.7-0.9,1c-0.2,0.2-0.3,0.3-0.5,0.5c-0.5,0.5-1,1-1.5,1.5l23.5,14.6
						c0.5-0.5,1-1,1.5-1.5c0.2-0.2,0.3-0.3,0.5-0.5c0.3-0.3,0.6-0.6,0.8-0.9c0,0,0.1-0.1,0.1-0.1c0.1-0.1,0.2-0.2,0.3-0.3
						c0.3-0.4,0.6-0.7,0.8-1.1c0.1-0.1,0.2-0.3,0.3-0.4c0.1-0.1,0.2-0.3,0.3-0.4c0.2-0.2,0.3-0.5,0.5-0.7c0-0.1,0.1-0.1,0.1-0.2
						c0.2-0.4,0.4-0.7,0.6-1.1c0-0.1,0.1-0.1,0.1-0.2c0.1-0.1,0.1-0.2,0.2-0.3c0.2-0.4,0.3-0.7,0.5-1.1c0-0.1,0.1-0.2,0.1-0.3
						c0,0,0-0.1,0.1-0.1c0.1-0.4,0.3-0.7,0.4-1.1c0-0.1,0-0.2,0.1-0.3c0.1-0.4,0.2-0.9,0.3-1.3l0,0c0.1-0.4,0.1-0.9,0.1-1.3
						c0-0.1,0-0.2,0-0.3c0-0.4,0-0.8,0-1.3c0-0.1,0-0.2,0-0.2c0-0.4-0.1-0.8-0.2-1.2c0-0.1,0-0.1,0-0.2c-0.1-0.4-0.2-0.9-0.3-1.3
						c0-0.1-0.1-0.2-0.1-0.3c-0.1-0.4-0.3-0.9-0.5-1.3c0-0.1-0.1-0.1-0.1-0.2c-0.2-0.4-0.4-0.8-0.6-1.3c0-0.1-0.1-0.2-0.1-0.3
						c-0.2-0.5-0.5-0.9-0.8-1.4c-0.1-0.1-0.1-0.2-0.2-0.3c-0.3-0.5-0.6-1-0.9-1.5l-23.5-14.6c0.3,0.5,0.6,1,0.9,1.5
						c0.1,0.1,0.1,0.2,0.2,0.3C279.6,114.6,279.9,115,280.1,115.5z"/>
					<path class="st20" d="M325,103.4c0.1-0.3,0.2-0.6,0.3-0.9c0.1-0.2,0.1-0.4,0.2-0.6c0.1-0.3,0.2-0.7,0.3-1.1
						c0-0.2,0.1-0.3,0.1-0.5c0.1-0.5,0.2-1.1,0.3-1.7l-23.5-14.6c-0.1,0.6-0.2,1.1-0.3,1.7c0,0.2-0.1,0.3-0.1,0.5
						c-0.1,0.4-0.2,0.7-0.3,1.1c-0.1,0.2-0.1,0.4-0.2,0.6c-0.1,0.3-0.2,0.6-0.3,0.9c-0.1,0.2-0.1,0.4-0.2,0.6
						c-0.1,0.3-0.2,0.6-0.3,0.9c-0.1,0.2-0.1,0.3-0.2,0.5c-0.1,0.3-0.3,0.6-0.4,0.9c0,0.1-0.1,0.2-0.1,0.3c-0.2,0.4-0.4,0.8-0.6,1.2
						c0,0-0.1,0.1-0.1,0.1c-0.3,0.5-0.5,0.9-0.8,1.3c-0.1,0.1-0.1,0.2-0.2,0.3c-0.3,0.4-0.5,0.7-0.8,1c-0.1,0.1-0.1,0.1-0.2,0.2
						c-0.2,0.2-0.4,0.5-0.7,0.7c-0.1,0.1-0.2,0.2-0.3,0.3c-0.2,0.2-0.5,0.4-0.7,0.6c-0.1,0.1-0.2,0.1-0.2,0.2
						c-0.4,0.3-0.8,0.5-1.2,0.8c-0.1,0-0.2,0.1-0.3,0.1c-0.5,0.2-0.9,0.5-1.4,0.7c-0.4,0.2-0.9,0.3-1.4,0.5
						c-0.2,0.1-0.5,0.1-0.7,0.2c-0.4,0.1-0.8,0.2-1.2,0.2c-0.2,0-0.5,0.1-0.7,0.1c-0.5,0.1-0.9,0.1-1.4,0.1c-0.2,0-0.4,0-0.7,0.1
						c-0.7,0-1.5,0.1-2.3,0.1l23.5,14.6c0.8,0,1.5,0,2.3-0.1c0.2,0,0.5,0,0.7-0.1c0.5,0,0.9-0.1,1.4-0.1c0.3,0,0.5-0.1,0.8-0.1
						c0.4-0.1,0.8-0.1,1.2-0.2c0.3-0.1,0.5-0.1,0.7-0.2c0.2-0.1,0.4-0.1,0.6-0.2c0.3-0.1,0.5-0.2,0.8-0.3c0.5-0.2,1-0.4,1.4-0.7
						c0.1,0,0.1,0,0.2-0.1c0,0,0.1,0,0.1-0.1c0.4-0.2,0.8-0.5,1.2-0.8c0,0,0.1,0,0.1,0c0.1,0,0.1-0.1,0.2-0.2
						c0.2-0.2,0.5-0.4,0.7-0.6c0.1,0,0.1-0.1,0.2-0.1c0,0,0.1-0.1,0.1-0.1c0.2-0.2,0.5-0.5,0.7-0.7c0,0,0.1-0.1,0.1-0.1c0,0,0,0,0,0
						c0.3-0.3,0.6-0.7,0.8-1c0,0,0-0.1,0.1-0.1c0-0.1,0.1-0.1,0.1-0.2c0.3-0.4,0.6-0.9,0.8-1.3c0,0,0-0.1,0.1-0.1c0,0,0,0,0,0
						c0.2-0.4,0.4-0.8,0.6-1.2c0-0.1,0.1-0.2,0.1-0.3c0.1-0.3,0.3-0.6,0.4-1c0,0,0-0.1,0.1-0.1c0-0.1,0.1-0.2,0.1-0.3
						c0.1-0.3,0.2-0.6,0.3-0.9C324.9,103.8,324.9,103.6,325,103.4z"/>
				</g>
				<path class="st20" d="M341.2,181.8l-23.5-14.6c1.7,1.1,3.4,2.6,5.1,4.7l23.5,14.6C344.6,184.5,342.9,182.9,341.2,181.8z"/>
				<path class="st21" d="M377.9,115.8c0.5,0.1,1.1,0.3,1.6,0.3c0,0,0,0,0,0c0,0,0.1,0,0.2,0c0.5,0.1,1,0.1,1.5,0.2
					c0.2,0,0.3,0,0.5,0c0.6,0,1.2,0.1,1.8,0.1L360,101.9c-0.6,0-1.2-0.1-1.8-0.1c-0.2,0-0.3,0-0.5,0c-0.5,0-1-0.1-1.5-0.2
					c-0.1,0-0.1,0-0.2,0c-0.6-0.1-1.1-0.2-1.6-0.4c-0.1,0-0.2-0.1-0.3-0.1c-0.5-0.1-1-0.3-1.4-0.5c-0.2-0.1-0.4-0.2-0.6-0.3
					c-0.1,0-0.2-0.1-0.3-0.1c-0.3-0.1-0.5-0.3-0.8-0.4c0,0,0,0,0,0l0,0l23.5,14.6c0,0,0,0,0,0c0.3,0.2,0.5,0.3,0.8,0.4
					c0.1,0,0.2,0.1,0.3,0.1c0.2,0.1,0.3,0.2,0.5,0.2c0,0,0,0,0.1,0c0.5,0.2,0.9,0.3,1.4,0.5C377.7,115.7,377.8,115.7,377.9,115.8z"
					/>
				<path class="st22" d="M364.7,144.8c0.2-0.6,0.3-1.1,0.5-1.7c0-0.1,0-0.2,0.1-0.3c0.1-0.5,0.2-1.1,0.3-1.6c0-0.1,0-0.1,0-0.2
					c0.1-0.6,0.2-1.2,0.2-1.8c0-0.1,0-0.3,0-0.4c0-0.6,0.1-1.2,0.1-1.8c0-0.1,0-0.2,0-0.2c0-0.6,0-1.1,0-1.7c0-0.1,0-0.2,0-0.3
					c0-0.6-0.1-1.2-0.2-1.8c0-0.1,0-0.2-0.1-0.4c-0.1-0.6-0.2-1.2-0.3-1.8c-1.4-5.9-4.7-10.5-9.2-13.2c-7.8-4.9-15.7-9.7-23.5-14.6
					c4.4,2.7,7.8,7.3,9.2,13.2c0.1,0.6,0.2,1.2,0.3,1.8c0,0.1,0,0.2,0.1,0.4c0.1,0.6,0.1,1.2,0.2,1.8c0,0.1,0,0.2,0,0.3
					c0,0.5,0,1.1,0,1.7c0,0.1,0,0.2,0,0.2c0,0.6,0,1.2-0.1,1.8c0,0.1,0,0.3,0,0.4c-0.1,0.6-0.1,1.2-0.2,1.8c0,0.1,0,0.1,0,0.2
					c-0.1,0.5-0.2,1.1-0.3,1.6c0,0.1,0,0.2-0.1,0.3c-0.1,0.6-0.3,1.1-0.5,1.7c0,0.1-0.1,0.2-0.1,0.4c-0.2,0.6-0.4,1.1-0.6,1.7
					c0,0,0,0.1,0,0.1c-0.2,0.6-0.5,1.1-0.7,1.7c-0.1,0.1-0.1,0.2-0.2,0.3c-0.3,0.5-0.5,1.1-0.8,1.6c-0.1,0.1-0.1,0.2-0.2,0.4
					c-0.2,0.3-0.4,0.7-0.6,1c-0.1,0.1-0.2,0.3-0.2,0.4c-0.3,0.4-0.5,0.8-0.8,1.2c0,0,0,0.1-0.1,0.1c-0.3,0.4-0.6,0.8-0.8,1.1
					c-0.1,0.1-0.2,0.3-0.3,0.4c-0.2,0.3-0.4,0.5-0.6,0.8c-0.1,0.1-0.2,0.3-0.3,0.4c-0.2,0.2-0.4,0.5-0.6,0.7
					c-0.1,0.1-0.2,0.2-0.3,0.4c-0.3,0.3-0.6,0.6-0.9,0.9c-0.1,0.1-0.1,0.1-0.2,0.2c-0.4,0.3-0.7,0.7-1.1,1c-0.1,0.1-0.2,0.2-0.3,0.3
					c-0.3,0.2-0.5,0.4-0.8,0.7c-0.1,0.1-0.3,0.2-0.4,0.3c-0.4,0.3-0.7,0.5-1.1,0.8c-0.1,0-0.1,0.1-0.2,0.1c-0.4,0.3-0.9,0.6-1.4,0.8
					c-0.1,0.1-0.3,0.1-0.4,0.2c-0.3,0.2-0.7,0.4-1,0.5c-0.1,0.1-0.3,0.1-0.4,0.2c-0.5,0.2-0.9,0.4-1.4,0.6c-0.5,0.2-0.9,0.3-1.3,0.5
					c-0.2,0.1-0.3,0.1-0.5,0.2c-0.3,0.1-0.6,0.2-0.9,0.3c-0.2,0.1-0.4,0.1-0.6,0.1c-0.3,0.1-0.5,0.1-0.8,0.2c-0.2,0-0.4,0.1-0.6,0.1
					c-0.2,0-0.5,0.1-0.8,0.1c-0.2,0-0.4,0.1-0.6,0.1c-0.2,0-0.5,0.1-0.7,0.1c-0.2,0-0.4,0-0.6,0c-0.2,0-0.5,0-0.7,0
					c-0.2,0-0.4,0-0.6,0c-0.2,0-0.5,0-0.7,0c-0.2,0-0.4,0-0.6,0c-0.2,0-0.5,0-0.7,0c-0.2,0-0.4,0-0.6-0.1c-0.2,0-0.5-0.1-0.7-0.1
					c-0.2,0-0.4-0.1-0.6-0.1c-0.2,0-0.3-0.1-0.5-0.1c-0.2,0-0.4-0.1-0.6-0.1c-0.2,0-0.3-0.1-0.5-0.1c-0.2-0.1-0.4-0.1-0.6-0.2
					c-0.2-0.1-0.3-0.1-0.5-0.2c-0.2-0.1-0.4-0.1-0.6-0.2c-0.2-0.1-0.3-0.1-0.5-0.2c-0.1-0.1-0.3-0.1-0.4-0.2c-0.3-0.1-0.7-0.3-1-0.5
					c-0.1-0.1-0.2-0.1-0.4-0.2c-0.4-0.2-0.8-0.5-1.3-0.7c0,0,0,0,0,0l23.5,14.6c0.4,0.3,0.8,0.5,1.3,0.7c0.1,0.1,0.2,0.1,0.4,0.2
					c0.3,0.2,0.7,0.3,1,0.5c0.1,0,0.2,0.1,0.2,0.1c0.1,0,0.1,0,0.2,0.1c0.2,0.1,0.3,0.1,0.5,0.2c0.2,0.1,0.4,0.2,0.6,0.2
					c0.2,0.1,0.3,0.1,0.5,0.2c0.2,0.1,0.4,0.1,0.6,0.2c0.2,0,0.3,0.1,0.5,0.1c0.2,0.1,0.4,0.1,0.6,0.1c0.2,0,0.3,0.1,0.5,0.1
					c0.1,0,0.2,0,0.3,0.1c0.1,0,0.2,0,0.3,0c0.2,0,0.5,0.1,0.7,0.1c0.2,0,0.4,0,0.6,0.1c0.2,0,0.5,0,0.7,0c0.2,0,0.4,0,0.6,0
					c0.2,0,0.5,0,0.7,0c0.2,0,0.4,0,0.6,0c0.2,0,0.5,0,0.7,0c0.2,0,0.4,0,0.6,0c0.3,0,0.5-0.1,0.8-0.1c0.2,0,0.4,0,0.6-0.1
					c0.3,0,0.5-0.1,0.8-0.1c0.2,0,0.4-0.1,0.6-0.1c0.3-0.1,0.6-0.1,0.8-0.2c0.2,0,0.3-0.1,0.5-0.1c0.3-0.1,0.7-0.2,1-0.3
					c0.1,0,0.2-0.1,0.3-0.1c0,0,0,0,0,0c0.5-0.2,0.9-0.3,1.4-0.5c0.5-0.2,1-0.4,1.4-0.6c0.1-0.1,0.3-0.1,0.4-0.2
					c0.3-0.2,0.7-0.4,1-0.5c0.1,0,0.2-0.1,0.2-0.1l0,0c0,0,0.1-0.1,0.1-0.1c0.5-0.3,0.9-0.5,1.4-0.8c0.1,0,0.1-0.1,0.2-0.1
					c0.4-0.3,0.8-0.5,1.2-0.8c0.1,0,0.1-0.1,0.2-0.1c0.1,0,0.1-0.1,0.2-0.1c0.3-0.2,0.6-0.4,0.9-0.7c0.1-0.1,0.2-0.2,0.3-0.3
					c0.4-0.3,0.7-0.6,1.1-1c0,0,0,0,0,0c0,0,0.1-0.1,0.1-0.1c0.3-0.3,0.6-0.6,0.9-0.8c0.1-0.1,0.2-0.2,0.3-0.4
					c0.2-0.2,0.4-0.5,0.7-0.7c0.1-0.1,0.1-0.1,0.2-0.2c0.1-0.1,0.1-0.1,0.2-0.2c0.2-0.3,0.4-0.5,0.6-0.8c0.1-0.1,0.2-0.2,0.3-0.4
					c0.3-0.4,0.6-0.8,0.9-1.2c0,0,0,0,0,0c0,0,0,0,0,0c0.3-0.4,0.6-0.8,0.8-1.3c0.1-0.1,0.2-0.3,0.2-0.4c0.2-0.3,0.4-0.7,0.6-1
					c0-0.1,0.1-0.2,0.1-0.2c0,0,0-0.1,0.1-0.1c0.3-0.5,0.6-1.1,0.8-1.6c0.1-0.1,0.1-0.2,0.2-0.3c0.3-0.6,0.5-1.1,0.7-1.7
					c0,0,0,0,0,0c0,0,0,0,0-0.1c0.2-0.6,0.4-1.1,0.6-1.7C364.7,145,364.7,144.9,364.7,144.8z"/>
				<g class="st19">
					<defs>
						<path id="SVGID_1_" class="st19" d="M316.1,182.3l-23.5-14.6c-0.8-0.5-1.5-1-2.2-1.5l23.5,14.6
							C314.6,181.4,315.3,181.9,316.1,182.3z"/>
					</defs>
					<clipPath id="SVGID_2_">
						<use xlink:href="#SVGID_1_"  style="overflow:visible;"/>
					</clipPath>
					<g class="st23">
						<path class="st20" d="M316.1,182.3l-23.5-14.6c-0.8-0.5-1.5-1-2.2-1.5l23.5,14.6C314.6,181.4,315.3,181.9,316.1,182.3"/>
					</g>
				</g>
				<g>
					<path class="st24" d="M383.5,116.5c0.8,2,1.4,4,1.9,6.2c0.5,2,0.8,4,1,6c-9,8.9-10,15.8-3.6,24.4c-1.6,4-3.6,7.9-6.1,11.5
						c-3.3,0.1-6,0.6-8.3,1.5c-5.6,2.3-8.6,7.2-10.1,15.6c-1.9,1.1-3.9,2-5.9,2.9c-2,0.8-4.1,1.5-6.1,2c-4.9-5.8-9.5-7.7-15-5.4
						c-2.3,0.9-4.7,2.5-7.4,4.9c-3.6-1.2-7-2.9-10-5.1c1.5-11.7-2.3-16.6-13.1-17.5c-0.7-1.8-1.3-3.7-1.8-5.7
						c-0.5-2.2-0.8-4.4-1-6.7c8.8-8.3,9.9-15.2,3.8-24.1c1.6-4,3.7-7.9,6.2-11.5c3.3,0,6.1-0.4,8.4-1.3c5.3-2.1,8.3-7,9.8-15.4
						c1.9-1.1,3.8-2,5.9-2.8c2-0.8,4-1.5,6-2c4.7,5.9,9.2,7.8,14.5,5.6c2.3-0.9,4.9-2.7,7.7-5.2c3.6,1.1,6.9,2.8,9.9,4.9
						C368.6,111.3,372.4,116.2,383.5,116.5z M347.7,163.9c12.8-5.2,20.7-20,17.7-33.1c-3-13.1-15.8-19.6-28.6-14.4
						c-12.8,5.2-20.7,20-17.7,33.1C322.1,162.6,334.9,169.1,347.7,163.9"/>
				</g>
				<g>
					<path class="st25" d="M363.4,95.4c0.6,0.3,1.3,0.6,1.9,0.9c0.2,0.1,0.5,0.2,0.7,0.4c0.8,0.4,1.6,0.9,2.4,1.3c0,0,0,0,0,0
						c0,0,0,0,0,0l-6.8-4.2c-5.6-3.5-11.2-6.9-16.8-10.4c-0.8-0.5-1.6-0.9-2.4-1.3c-0.2-0.1-0.5-0.2-0.7-0.4
						c-0.6-0.3-1.2-0.6-1.9-0.9c-0.2-0.1-0.3-0.1-0.4-0.2c-0.1,0-0.2-0.1-0.2-0.1c-0.8-0.3-1.6-0.6-2.5-0.9l23.5,14.6
						c0.8,0.3,1.7,0.6,2.5,0.9C362.9,95.2,363.2,95.3,363.4,95.4z"/>
					<path class="st25" d="M298,150.9l-23.5-14.6c0.2,2.2,0.5,4.5,1,6.7c0.5,2,1.1,3.9,1.8,5.7l23.5,14.6c-0.7-1.8-1.3-3.7-1.8-5.7
						C298.5,155.4,298.1,153.2,298,150.9z"/>
					<path class="st25" d="M335.8,94.4c0.2-0.1,0.4-0.1,0.5-0.2c0.6-0.2,1.1-0.3,1.7-0.5l-23.5-14.6c-0.6,0.1-1.1,0.3-1.7,0.5
						c-0.2,0.1-0.4,0.1-0.5,0.2c-0.4,0.1-0.8,0.2-1.2,0.4c-0.1,0-0.2,0.1-0.3,0.1c-0.1,0-0.2,0.1-0.3,0.1c-0.7,0.2-1.4,0.5-2.1,0.8
						c-2,0.8-4,1.8-5.9,2.8l23.5,14.6c1.9-1.1,3.8-2,5.9-2.8c0.7-0.3,1.4-0.5,2.1-0.8c0.2-0.1,0.4-0.1,0.5-0.2
						C335.1,94.7,335.5,94.6,335.8,94.4z"/>
					<path class="st25" d="M304.7,120.7c0.3-0.6,0.7-1.2,1-1.8c0.2-0.3,0.3-0.6,0.5-0.9c0.6-0.9,1.1-1.8,1.7-2.7l-23.5-14.6
						c-0.6,0.9-1.2,1.8-1.7,2.7c-0.2,0.3-0.4,0.6-0.5,0.9c-0.3,0.5-0.6,1.1-0.9,1.6c0,0.1-0.1,0.1-0.1,0.2c-0.4,0.7-0.7,1.3-1,2
						c-0.2,0.3-0.3,0.7-0.5,1c-0.5,1-0.9,2.1-1.4,3.1l23.5,14.6c0.4-1,0.9-2.1,1.4-3.1c0.2-0.3,0.3-0.7,0.5-1
						C304,122.1,304.3,121.4,304.7,120.7z"/>
				</g>
			</g>
		</g>
		<g>
			<g class="st19">
				<path class="st26" d="M200.2,239.4l-35.9-22.2c2.9,1.8,5.8,4.6,8.8,8.5l35.9,22.2C206,244,203.1,241.2,200.2,239.4z"/>
				<path class="st26" d="M273.9,105.1c0.2,0.1,0.4,0.1,0.6,0.2c0.4,0.1,0.7,0.2,1.1,0.3c0.2,0,0.4,0.1,0.5,0.1
					c0.5,0.1,1.1,0.2,1.7,0.3c0,0,0,0,0.1,0c0,0,0,0,0,0c0,0,0,0,0,0c0.9,0.1,1.8,0.3,2.8,0.3c0.2,0,0.5,0,0.7,0.1
					c1,0.1,2,0.2,3.1,0.2l-35.9-22.2c-1.1,0-2.1-0.1-3.1-0.2c-0.3,0-0.5,0-0.7-0.1c-1-0.1-1.9-0.2-2.7-0.3c-0.6-0.1-1.3-0.2-1.8-0.4
					c-0.2,0-0.4-0.1-0.5-0.1c-0.4-0.1-0.8-0.2-1.1-0.3c-0.2-0.1-0.4-0.1-0.6-0.2c-0.3-0.1-0.7-0.2-1-0.3c-0.2-0.1-0.3-0.1-0.5-0.2
					c-0.3-0.1-0.7-0.3-1-0.4c-0.1-0.1-0.3-0.1-0.4-0.2c-0.4-0.2-0.9-0.4-1.3-0.7c12,7.4,23.9,14.8,35.9,22.2c0,0,0,0,0,0
					c0.4,0.2,0.8,0.5,1.2,0.7c0.1,0.1,0.3,0.1,0.4,0.2c0.2,0.1,0.5,0.2,0.7,0.3c0.1,0,0.2,0.1,0.2,0.1c0.2,0.1,0.3,0.1,0.5,0.2
					C273.2,104.9,273.5,105,273.9,105.1z"/>
				<g class="st19">
					<defs>
						<path id="SVGID_3_" class="st19" d="M117.4,208.8l35.9,22.2c4.2,2.6,6.4,8.7,7.3,18.6l-35.9-22.2
							C123.8,217.5,121.6,211.4,117.4,208.8z"/>
					</defs>
					<clipPath id="SVGID_4_">
						<use xlink:href="#SVGID_3_"  style="overflow:visible;"/>
					</clipPath>
					<g class="st27">
						<path class="st26" d="M160.6,249.5l-35.9-22.2c-0.9-9.9-3.2-16-7.3-18.6l35.9,22.2C157.4,233.6,159.7,239.7,160.6,249.5"/>
					</g>
				</g>
				<path class="st26" d="M243.9,161.5c0.3-1.1,0.7-2.2,0.9-3.4c0.1-0.3,0.1-0.5,0.2-0.8c0.3-1.2,0.5-2.4,0.7-3.6
					c0-0.2,0.1-0.4,0.1-0.6c0.2-1.1,0.3-2.1,0.4-3.2c0-0.2,0.1-0.5,0.1-0.7c0.1-1.2,0.2-2.4,0.2-3.6c0-0.3,0-0.5,0-0.8
					c0-1.1,0-2.2,0-3.3c0-0.2,0-0.3,0-0.5c-0.1-1.2-0.2-2.4-0.3-3.7c0-0.3-0.1-0.6-0.1-0.9c-0.2-1.2-0.3-2.5-0.6-3.7
					c-2.6-13.7-10.2-24.3-20.3-30.6c-12-7.4-23.9-14.8-35.9-22.2c10.1,6.3,17.6,16.9,20.3,30.6c0.2,1.2,0.4,2.5,0.6,3.7
					c0,0.3,0.1,0.6,0.1,0.8c0.1,1.2,0.2,2.4,0.3,3.7c0,0.2,0,0.3,0,0.5c0,1.1,0,2.2,0,3.3c0,0.3,0,0.5,0,0.8c0,1.2-0.1,2.4-0.2,3.6
					c0,0.2-0.1,0.5-0.1,0.7c-0.1,1.1-0.3,2.2-0.4,3.3c0,0.2-0.1,0.4-0.1,0.6c-0.2,1.2-0.5,2.4-0.7,3.6c-0.1,0.3-0.1,0.5-0.2,0.8
					c-0.3,1.1-0.6,2.3-0.9,3.4c0,0.1,0,0.2-0.1,0.2c-0.4,1.2-0.8,2.4-1.2,3.5c-0.1,0.3-0.2,0.5-0.3,0.8c-0.5,1.2-1,2.5-1.5,3.7
					c-0.1,0.2-0.2,0.3-0.2,0.5c-0.5,1.2-1.1,2.3-1.7,3.4c-0.1,0.1-0.1,0.3-0.2,0.4c-0.5,1-1.1,1.9-1.7,2.9c-0.1,0.2-0.3,0.5-0.5,0.7
					c-0.5,0.7-1,1.5-1.5,2.2c-0.2,0.3-0.3,0.5-0.5,0.8c-0.5,0.8-1.1,1.5-1.7,2.2c-0.1,0.1-0.2,0.2-0.2,0.3c-0.6,0.8-1.3,1.6-2,2.4
					c-0.2,0.2-0.4,0.5-0.6,0.7c-0.5,0.5-1,1.1-1.5,1.6c-0.3,0.3-0.5,0.5-0.8,0.8c-0.5,0.5-1,1-1.5,1.5c-0.2,0.2-0.5,0.5-0.7,0.7
					c-0.8,0.7-1.6,1.4-2.4,2.1c-0.1,0.1-0.2,0.1-0.3,0.2c-0.7,0.6-1.5,1.2-2.2,1.8c-0.2,0.2-0.5,0.4-0.7,0.5
					c-0.8,0.6-1.6,1.1-2.4,1.6c-0.2,0.1-0.4,0.3-0.6,0.4c-1,0.6-1.9,1.2-2.9,1.8c-0.2,0.1-0.5,0.3-0.7,0.4c-0.8,0.4-1.5,0.8-2.3,1.2
					c-0.3,0.1-0.6,0.3-0.9,0.4c-1,0.5-2,0.9-3.1,1.4c-0.6,0.2-1.2,0.5-1.8,0.7c-0.6,0.2-1.3,0.4-1.9,0.6c-0.6,0.2-1.1,0.4-1.7,0.5
					c-0.4,0.1-0.8,0.2-1.2,0.3c-0.6,0.1-1.1,0.3-1.7,0.4c-0.4,0.1-0.8,0.2-1.2,0.3c-0.6,0.1-1.2,0.2-1.8,0.3
					c-0.4,0.1-0.8,0.1-1.1,0.2c-0.6,0.1-1.3,0.2-1.9,0.2c-0.3,0-0.6,0.1-0.9,0.1c-0.9,0.1-1.9,0.1-2.8,0.2c0,0,0,0,0,0
					c-0.9,0-1.8,0-2.8,0c-0.3,0-0.6,0-0.9-0.1c-0.6,0-1.2-0.1-1.9-0.1c-0.4,0-0.7-0.1-1-0.1c-0.6-0.1-1.1-0.1-1.7-0.2
					c-0.4-0.1-0.8-0.1-1.3-0.2c-0.4-0.1-0.8-0.1-1.1-0.2c-0.4-0.1-0.9-0.2-1.3-0.3c-0.4-0.1-0.7-0.2-1.1-0.3
					c-0.4-0.1-0.8-0.2-1.3-0.4c-0.4-0.1-0.7-0.2-1.1-0.3c-0.4-0.1-0.8-0.3-1.2-0.4c-0.4-0.1-0.7-0.3-1.1-0.4
					c-0.2-0.1-0.4-0.2-0.6-0.2c-0.8-0.3-1.6-0.7-2.4-1.1c-0.3-0.1-0.5-0.3-0.8-0.4c-0.9-0.5-1.8-1-2.7-1.5c0,0,0,0-0.1,0l35.9,22.2
					c0,0,0,0,0,0c0,0,0,0,0.1,0c0.9,0.5,1.8,1,2.7,1.5c0.3,0.1,0.5,0.3,0.8,0.4c0.8,0.4,1.5,0.7,2.3,1.1c0.1,0.1,0.3,0.1,0.4,0.2
					c0.1,0,0.1,0,0.2,0.1c0.3,0.1,0.7,0.2,1,0.4c0.4,0.2,0.9,0.3,1.3,0.5c0.3,0.1,0.7,0.2,1,0.3c0.4,0.1,0.9,0.3,1.3,0.4
					c0.4,0.1,0.7,0.2,1.1,0.3c0.4,0.1,0.9,0.2,1.3,0.3c0.4,0.1,0.8,0.2,1.1,0.2c0.3,0.1,0.6,0.1,0.9,0.2c0.1,0,0.3,0,0.4,0.1
					c0.6,0.1,1.1,0.2,1.7,0.2c0.3,0,0.7,0.1,1,0.1c0.6,0.1,1.2,0.1,1.9,0.1c0.3,0,0.6,0,0.9,0.1c0.9,0,1.8,0,2.8,0c0,0,0,0,0,0
					c0.9,0,1.9-0.1,2.8-0.2c0.3,0,0.6-0.1,0.9-0.1c0.6-0.1,1.3-0.1,1.9-0.2c0.4-0.1,0.7-0.1,1.1-0.2c0.6-0.1,1.2-0.2,1.8-0.3
					c0.4-0.1,0.8-0.2,1.2-0.3c0.6-0.1,1.1-0.3,1.7-0.4c0.4-0.1,0.8-0.2,1.2-0.3c0.6-0.2,1.1-0.3,1.7-0.5c0.2-0.1,0.5-0.1,0.7-0.2
					c0.4-0.1,0.8-0.3,1.2-0.4c0.6-0.2,1.2-0.5,1.8-0.7c1-0.4,2.1-0.9,3.1-1.4c0.3-0.1,0.6-0.3,0.9-0.4c0.8-0.4,1.6-0.8,2.3-1.2
					c0.2-0.1,0.3-0.2,0.5-0.3c0.1,0,0.1-0.1,0.2-0.1c1-0.6,2-1.2,3-1.8c0.2-0.1,0.4-0.3,0.6-0.4c0.8-0.5,1.6-1.1,2.4-1.7
					c0.1-0.1,0.3-0.2,0.4-0.3c0.1-0.1,0.2-0.2,0.3-0.2c0.8-0.6,1.5-1.2,2.3-1.8c0.1-0.1,0.2-0.1,0.2-0.2c0.8-0.7,1.6-1.4,2.4-2.1
					c0.1-0.1,0.1-0.1,0.2-0.2c0.2-0.1,0.3-0.3,0.5-0.5c0.5-0.5,1.1-1,1.6-1.6c0.2-0.2,0.5-0.5,0.7-0.8c0.5-0.5,1-1.1,1.5-1.6
					c0.1-0.2,0.3-0.3,0.5-0.5c0.1-0.1,0.1-0.1,0.2-0.2c0.7-0.8,1.4-1.6,2-2.4c0.1-0.1,0.2-0.2,0.3-0.4c0.6-0.7,1.1-1.4,1.6-2.2
					c0.1-0.1,0.2-0.2,0.2-0.3c0.1-0.2,0.2-0.3,0.3-0.5c0.5-0.7,1-1.4,1.4-2.2c0.2-0.2,0.3-0.5,0.5-0.7c0.6-0.9,1.1-1.9,1.7-2.9
					c0,0,0-0.1,0.1-0.1c0.1-0.1,0.1-0.2,0.1-0.3c0.6-1.1,1.2-2.3,1.7-3.4c0.1-0.2,0.2-0.3,0.3-0.5c0.6-1.2,1.1-2.4,1.5-3.7
					c0-0.1,0.1-0.2,0.2-0.4c0.1-0.1,0.1-0.3,0.1-0.4c0.4-1.2,0.9-2.3,1.2-3.5C243.8,161.7,243.8,161.6,243.9,161.5z"/>
				<path class="st26" d="M254.2,69.2c0.4-0.2,0.8-0.4,1.1-0.6c0.2-0.1,0.5-0.2,0.7-0.4c0.4-0.2,0.7-0.4,1.1-0.6
					c0.3-0.1,0.5-0.3,0.8-0.4c0,0,0,0,0,0L222.1,45c-0.6,0.3-1.2,0.7-1.8,1c-0.1,0-0.1,0.1-0.2,0.1c-0.5,0.3-1.1,0.6-1.6,0.8
					c-0.1,0-0.2,0.1-0.2,0.1c-0.5,0.3-1,0.5-1.5,0.7c-0.1,0-0.2,0.1-0.2,0.1c-0.6,0.3-1.1,0.5-1.7,0.7c-0.7,0.3-1.4,0.5-2.1,0.8
					c-0.8,0.3-1.5,0.5-2.2,0.7c-0.1,0-0.2,0-0.4,0.1c-0.6,0.1-1.2,0.3-1.7,0.3c-0.2,0-0.5,0-0.7,0.1c-0.4,0-0.9,0.1-1.3,0.1
					c-0.2,0-0.5,0-0.7,0c-0.4,0-0.7,0-1.1-0.1c-0.3,0-0.6-0.1-0.8-0.1c-0.1,0-0.3-0.1-0.4-0.1c-0.4-0.1-0.9-0.2-1.3-0.4
					c-0.4-0.1-0.7-0.3-1-0.5c-0.1-0.1-0.2-0.1-0.3-0.1c0,0,0,0,0,0l35.9,22.2c0.1,0.1,0.3,0.1,0.4,0.2c0.3,0.2,0.6,0.3,0.9,0.5
					c0,0,0,0,0,0c0.4,0.2,0.8,0.3,1.3,0.4c0.1,0,0.3,0.1,0.4,0.1c0.2,0,0.3,0.1,0.4,0.1c0.1,0,0.3,0,0.4,0c0.4,0,0.7,0.1,1.1,0.1
					c0.2,0,0.5,0,0.7,0c0.4,0,0.8,0,1.3-0.1c0.2,0,0.4,0,0.7-0.1c0.6-0.1,1.1-0.2,1.7-0.3c0.1,0,0.2,0,0.3-0.1
					c0.7-0.2,1.5-0.4,2.3-0.7c0,0,0.1,0,0.1,0c0.6-0.2,1.3-0.5,1.9-0.7c0.6-0.2,1.1-0.5,1.7-0.7c0.4-0.2,0.9-0.4,1.3-0.6
					C253.9,69.4,254,69.3,254.2,69.2z"/>
				<g>
					<defs>
						<path id="SVGID_5_" d="M132,235.2L96.2,213c-3.6-2.9-7-6.1-10-9.6l35.9,22.2C125.1,229.1,128.4,232.3,132,235.2z"/>
					</defs>
					<use xlink:href="#SVGID_5_"  style="overflow:visible;fill:#348F9E;"/>
					<clipPath id="SVGID_6_">
						<use xlink:href="#SVGID_5_"  style="overflow:visible;"/>
					</clipPath>
					<g class="st28">
						<path class="st29" d="M132,235.2L96.2,213c-3.6-2.9-7-6.1-10-9.6l35.9,22.2C125.1,229.1,128.4,232.3,132,235.2"/>
					</g>
				</g>
				<g>
					<defs>
						<path id="SVGID_7_" d="M215.6,50.4l-35.9-22.2c4.7,0.4,9.4,1.2,13.9,2.4l35.9,22.2C224.9,51.6,220.3,50.8,215.6,50.4z"/>
					</defs>
					<use xlink:href="#SVGID_7_"  style="overflow:visible;fill:#348F9E;"/>
					<clipPath id="SVGID_8_">
						<use xlink:href="#SVGID_7_"  style="overflow:visible;"/>
					</clipPath>
					<g class="st30">
						<path class="st29" d="M215.6,50.4l-35.9-22.2c2.2,0.2,4.3,0.5,6.5,0.8L222,51.2C219.9,50.9,217.7,50.6,215.6,50.4"/>
						<path class="st29" d="M222,51.2L186.2,29c2.5,0.4,5,1,7.4,1.6l35.9,22.2C227,52.2,224.5,51.6,222,51.2"/>
					</g>
				</g>
				<g class="st19">
					<defs>
						<path id="SVGID_9_" class="st19" d="M84.4,176.9c12,7.4,23.9,14.8,35.9,22.2c6.8,4.2,7.1,12.6,1.7,26.4l-35.9-22.2
							C91.5,189.5,91.2,181.1,84.4,176.9z"/>
					</defs>
					<clipPath id="SVGID_10_">
						<use xlink:href="#SVGID_9_"  style="overflow:visible;"/>
					</clipPath>
					<g class="st31">
						<path class="st32" d="M122,225.5l-35.9-22.2c0.1-0.1,0.1-0.3,0.2-0.4l35.9,22.2C122.1,225.3,122.1,225.4,122,225.5"/>
						<path class="st26" d="M122.2,225.1l-35.9-22.2c5.2-13.6,4.9-21.9-1.9-26l35.9,22.2C127,203.3,127.4,211.5,122.2,225.1"/>
					</g>
				</g>
				<g>
					<defs>
						<path id="SVGID_11_" d="M105.5,195.7l-35.9-22.2c-0.8-2.5-1.5-5-2.1-7.6s-1.1-5.2-1.4-7.8l35.9,22.2c0.4,2.6,0.8,5.2,1.4,7.8
							C104,190.8,104.7,193.3,105.5,195.7z"/>
					</defs>
					<use xlink:href="#SVGID_11_"  style="overflow:visible;fill:#348F9E;"/>
					<clipPath id="SVGID_12_">
						<use xlink:href="#SVGID_11_"  style="overflow:visible;"/>
					</clipPath>
					<g class="st33">
						<path class="st29" d="M105.5,195.7l-35.9-22.2c-0.8-2.5-1.5-5-2.1-7.6s-1.1-5.2-1.4-7.8l35.9,22.2c0.4,2.6,0.8,5.2,1.4,7.8
							C104,190.8,104.7,193.3,105.5,195.7"/>
					</g>
				</g>
				<g>
					<defs>
						<path id="SVGID_13_" d="M103.1,143.5l-35.9-22.2c1.1-5.2,2.5-10.4,4.3-15.4l35.9,22.2C105.7,133.1,104.2,138.2,103.1,143.5z"
							/>
					</defs>
					<use xlink:href="#SVGID_13_"  style="overflow:visible;fill:#348F9E;"/>
					<clipPath id="SVGID_14_">
						<use xlink:href="#SVGID_13_"  style="overflow:visible;"/>
					</clipPath>
					<g class="st34">
						<path class="st29" d="M103.1,143.5l-35.9-22.2c1.1-5.2,2.5-10.4,4.3-15.4l35.9,22.2C105.7,133.1,104.2,138.2,103.1,143.5"/>
					</g>
				</g>
				<g>
					<path class="st26" d="M213.5,53.3c0.1-0.1,0.2-0.3,0.3-0.4c0.5-0.7,1-1.4,1.5-2.1c0.1-0.1,0.2-0.2,0.2-0.3l-35.9-22.2
						c-0.6,0.8-1.2,1.7-1.8,2.4c-0.1,0.2-0.2,0.3-0.3,0.5c-0.6,0.7-1.1,1.4-1.7,2.1c0,0.1-0.1,0.1-0.1,0.2c-0.5,0.6-0.9,1.1-1.4,1.6
						c-0.2,0.2-0.4,0.5-0.6,0.7c-0.4,0.4-0.7,0.8-1.1,1.1c-0.2,0.2-0.4,0.4-0.6,0.6c-0.5,0.5-1,1-1.5,1.4c-0.1,0.1-0.1,0.1-0.2,0.2
						c-0.5,0.4-0.9,0.7-1.4,1.1c-0.1,0.1-0.2,0.2-0.4,0.3c-0.5,0.3-1,0.7-1.5,0.9c-0.6,0.3-1.2,0.6-1.8,0.9
						c-0.4,0.1-0.7,0.3-1.1,0.4c-0.2,0.1-0.4,0.1-0.7,0.2c-0.2,0.1-0.5,0.1-0.7,0.2c-0.2,0-0.4,0.1-0.7,0.1c-0.2,0-0.5,0-0.7,0.1
						c-0.2,0-0.4,0-0.7,0c-0.2,0-0.5,0-0.7,0c-0.2,0-0.4,0-0.7-0.1c-0.2,0-0.5-0.1-0.7-0.1c-0.2,0-0.4-0.1-0.6-0.1
						c-0.2-0.1-0.5-0.1-0.7-0.2c-0.2-0.1-0.4-0.1-0.6-0.2c-0.3-0.1-0.6-0.2-0.9-0.4c-0.1-0.1-0.3-0.1-0.4-0.2
						c-0.4-0.2-0.9-0.5-1.3-0.7c12,7.4,23.9,14.8,35.9,22.2c0.4,0.3,0.9,0.5,1.3,0.7c0.1,0.1,0.3,0.1,0.4,0.2
						c0.2,0.1,0.4,0.2,0.6,0.3c0.1,0,0.2,0.1,0.2,0.1c0.2,0.1,0.4,0.2,0.6,0.2c0.2,0.1,0.5,0.2,0.7,0.2c0.2,0.1,0.4,0.1,0.6,0.1
						c0.1,0,0.3,0.1,0.4,0.1c0.1,0,0.2,0,0.3,0c0.2,0,0.5,0.1,0.7,0.1c0.2,0,0.5,0,0.7,0c0.2,0,0.5,0,0.7,0c0.2,0,0.5,0,0.7-0.1
						c0.2,0,0.4-0.1,0.7-0.1c0.2,0,0.5-0.1,0.7-0.2c0.2-0.1,0.5-0.1,0.7-0.2c0.1,0,0.2-0.1,0.4-0.1c0.2-0.1,0.5-0.2,0.7-0.3
						c0.6-0.2,1.2-0.5,1.8-0.9c0,0,0,0,0.1,0c0.5-0.3,0.9-0.6,1.4-0.9c0.1-0.1,0.2-0.2,0.3-0.2c0.2-0.1,0.3-0.2,0.5-0.3
						c0.3-0.2,0.6-0.5,0.9-0.7c0.1-0.1,0.1-0.1,0.2-0.2c0.4-0.4,0.9-0.7,1.3-1.1c0.1-0.1,0.2-0.2,0.2-0.2c0.2-0.2,0.4-0.4,0.6-0.6
						c0.4-0.4,0.7-0.7,1.1-1.1c0.2-0.2,0.4-0.5,0.6-0.7c0.2-0.2,0.3-0.3,0.5-0.5c0.3-0.3,0.6-0.7,0.9-1.1c0-0.1,0.1-0.1,0.1-0.2
						C212.4,54.7,212.9,54,213.5,53.3z"/>
					<path class="st26" d="M114.4,159.5c0-0.4,0-0.7-0.1-1.1c0-0.1,0-0.1,0-0.2c-0.1-0.4-0.1-0.8-0.2-1.3c0-0.1-0.1-0.2-0.1-0.4
						c-0.1-0.3-0.2-0.6-0.3-0.9c0-0.1-0.1-0.3-0.2-0.4c-0.1-0.3-0.2-0.6-0.4-0.9c-0.1-0.1-0.1-0.2-0.2-0.4c-0.2-0.4-0.4-0.8-0.6-1.2
						c0-0.1-0.1-0.1-0.1-0.2c-0.2-0.4-0.4-0.7-0.7-1.1c-0.1-0.1-0.2-0.3-0.3-0.4c-0.2-0.3-0.4-0.6-0.6-0.8c-0.1-0.1-0.2-0.3-0.3-0.4
						c-0.3-0.3-0.5-0.6-0.8-1c-0.1-0.1-0.2-0.2-0.2-0.3c-0.4-0.4-0.8-0.8-1.2-1.2c-0.1-0.1-0.2-0.2-0.3-0.3c-0.3-0.3-0.7-0.6-1-0.9
						c-0.2-0.1-0.3-0.3-0.5-0.4c-0.3-0.3-0.7-0.6-1-0.9c-0.2-0.1-0.3-0.2-0.5-0.4c-0.5-0.4-1-0.8-1.6-1.2l-35.9-22.2
						c0.6,0.4,1.1,0.8,1.6,1.2c0.2,0.1,0.3,0.2,0.5,0.4c0.4,0.3,0.7,0.6,1.1,0.9c0.2,0.1,0.3,0.3,0.5,0.4c0.3,0.3,0.7,0.6,1,0.9
						c0.1,0.1,0.2,0.2,0.3,0.3c0.4,0.4,0.8,0.8,1.2,1.2c0.1,0.1,0.2,0.2,0.2,0.3c0.3,0.3,0.6,0.6,0.8,1c0.1,0.1,0.2,0.3,0.3,0.4
						c0.2,0.3,0.4,0.6,0.7,0.9c0.1,0.1,0.2,0.3,0.3,0.4c0.2,0.4,0.5,0.7,0.7,1.1c0,0,0.1,0.1,0.1,0.1c0.2,0.4,0.5,0.8,0.7,1.2
						c0.1,0.1,0.1,0.2,0.2,0.3c0.1,0.3,0.3,0.6,0.4,0.9c0.1,0.1,0.1,0.3,0.1,0.4c0.1,0.3,0.2,0.6,0.3,0.9c0,0.1,0.1,0.2,0.1,0.3
						c0.1,0.4,0.2,0.8,0.2,1.3c0,0.1,0,0.1,0,0.2c0,0.4,0.1,0.7,0.1,1.1c0,0.1,0,0.3,0,0.4c0,0.3,0,0.6,0,0.9c0,0.1,0,0.3,0,0.4
						c0,0.3-0.1,0.7-0.1,1c0,0.1,0,0.2,0,0.3c-0.1,0.4-0.2,0.9-0.3,1.3c0,0.1-0.1,0.2-0.1,0.4c-0.1,0.3-0.2,0.7-0.3,1
						c-0.1,0.2-0.1,0.3-0.2,0.5c-0.1,0.3-0.2,0.5-0.3,0.8c-0.1,0.2-0.2,0.3-0.2,0.5c-0.1,0.3-0.3,0.6-0.4,0.9
						c-0.1,0.2-0.2,0.3-0.2,0.5c-0.2,0.4-0.5,0.9-0.8,1.4c0,0,0,0,0,0c-0.3,0.4-0.6,0.9-0.9,1.4c-0.1,0.1-0.2,0.2-0.3,0.4
						c-0.3,0.4-0.7,0.9-1,1.4c-0.1,0.1-0.2,0.3-0.3,0.4c-0.4,0.6-0.9,1.1-1.4,1.7c0,0.1-0.1,0.1-0.1,0.2c-0.7,0.8-1.5,1.7-2.3,2.5
						c0,0-0.1,0.1-0.1,0.1c-0.9,0.9-1.8,1.8-2.7,2.7l35.9,22.2c1-0.9,1.9-1.8,2.7-2.7c0,0,0,0,0.1-0.1c0.8-0.9,1.6-1.7,2.3-2.5
						c0,0,0.1-0.1,0.1-0.1c0,0,0,0,0,0c0.5-0.6,1-1.1,1.4-1.7c0.1-0.1,0.2-0.3,0.3-0.4c0.4-0.5,0.7-0.9,1-1.3
						c0.1-0.1,0.1-0.2,0.2-0.3c0,0,0.1-0.1,0.1-0.1c0.3-0.4,0.6-0.9,0.9-1.3c0,0,0-0.1,0-0.1c0.3-0.5,0.5-0.9,0.8-1.3
						c0,0,0-0.1,0.1-0.1c0.1-0.1,0.1-0.2,0.2-0.3c0.2-0.3,0.3-0.6,0.5-0.9c0.1-0.2,0.2-0.3,0.2-0.5c0.1-0.3,0.2-0.6,0.4-0.8
						c0-0.1,0.1-0.2,0.1-0.3c0-0.1,0-0.1,0.1-0.2c0.1-0.3,0.2-0.7,0.3-1c0-0.1,0.1-0.2,0.1-0.3c0.1-0.4,0.2-0.9,0.3-1.3
						c0-0.1,0-0.2,0-0.2c0.1-0.4,0.1-0.7,0.1-1.1c0-0.1,0-0.3,0-0.4c0-0.3,0-0.6,0-0.9C114.4,159.8,114.4,159.7,114.4,159.5z"/>
					<path class="st26" d="M164,69.5c0.2-0.8,0.5-1.6,0.7-2.5c0-0.2,0.1-0.3,0.1-0.5c0.2-0.7,0.4-1.5,0.5-2.3
						c0.1-0.3,0.1-0.5,0.2-0.8c0.2-1,0.4-1.9,0.5-3l-35.9-22.2c-0.2,1-0.3,2-0.5,3c-0.1,0.3-0.1,0.5-0.2,0.8
						c-0.2,0.8-0.3,1.5-0.5,2.3c0,0.2-0.1,0.3-0.1,0.5c-0.2,0.9-0.4,1.7-0.7,2.5c-0.1,0.2-0.1,0.4-0.2,0.6c-0.2,0.6-0.4,1.2-0.6,1.8
						c-0.1,0.2-0.1,0.4-0.2,0.6c-0.2,0.4-0.4,0.9-0.5,1.3c-0.1,0.2-0.1,0.3-0.2,0.5c-0.3,0.6-0.5,1.1-0.8,1.6c0,0.1-0.1,0.1-0.1,0.2
						c-0.3,0.6-0.7,1.2-1.1,1.8c-0.1,0.1-0.2,0.3-0.3,0.4c-0.3,0.4-0.6,0.8-0.9,1.2c0,0.1-0.1,0.1-0.1,0.2c-0.3,0.4-0.7,0.8-1.1,1.1
						c-0.1,0.1-0.2,0.2-0.3,0.3c-0.3,0.2-0.5,0.5-0.8,0.7c-0.1,0.1-0.3,0.2-0.4,0.3c-0.3,0.2-0.7,0.5-1,0.7
						c-0.1,0.1-0.3,0.2-0.4,0.2c-0.5,0.3-0.9,0.5-1.4,0.7c-0.4,0.2-0.8,0.3-1.1,0.4c-0.5,0.1-1,0.3-1.5,0.4c-0.2,0-0.5,0.1-0.7,0.1
						c-0.7,0.1-1.3,0.2-2.1,0.2c-0.1,0-0.2,0-0.2,0c-0.8,0-1.6,0-2.5,0c-0.3,0-0.5,0-0.8-0.1c-0.6-0.1-1.3-0.1-1.9-0.2
						c-0.3,0-0.6-0.1-1-0.2c-0.7-0.1-1.3-0.3-2-0.4c-0.3-0.1-0.6-0.1-0.9-0.2c-1-0.3-2-0.5-3.1-0.9l35.9,22.2
						c1.1,0.3,2.1,0.6,3.1,0.9c0.3,0.1,0.6,0.1,0.9,0.2c0.7,0.2,1.4,0.3,2,0.4c0.2,0,0.3,0.1,0.5,0.1c0.2,0,0.3,0,0.5,0.1
						c0.7,0.1,1.3,0.2,1.9,0.2c0.3,0,0.5,0.1,0.8,0.1c0.9,0.1,1.7,0.1,2.5,0c0.1,0,0.1,0,0.2,0c0.7,0,1.4-0.1,2.1-0.2
						c0.2,0,0.5-0.1,0.7-0.1c0.5-0.1,1-0.2,1.5-0.4c0.1,0,0.3-0.1,0.4-0.1c0.3-0.1,0.5-0.2,0.7-0.3c0.5-0.2,1-0.4,1.5-0.7
						c0.1,0,0.1,0,0.2-0.1c0.1,0,0.2-0.1,0.2-0.2c0.3-0.2,0.7-0.4,1-0.7c0.1-0.1,0.2-0.1,0.2-0.2c0,0,0.1-0.1,0.1-0.1
						c0.3-0.2,0.6-0.5,0.8-0.7c0.1-0.1,0.2-0.1,0.3-0.2c0,0,0,0,0.1-0.1c0.4-0.4,0.7-0.7,1.1-1.1c0,0,0,0,0,0c0,0,0.1-0.1,0.1-0.1
						c0.3-0.4,0.6-0.8,0.9-1.2c0-0.1,0.1-0.1,0.1-0.2c0.1-0.1,0.1-0.2,0.1-0.2c0.4-0.6,0.7-1.1,1.1-1.7c0,0,0.1-0.1,0.1-0.1
						c0,0,0,0,0,0c0.3-0.5,0.6-1.1,0.8-1.6c0.1-0.1,0.1-0.3,0.2-0.5c0.2-0.4,0.4-0.9,0.6-1.4c0-0.1,0.1-0.1,0.1-0.2
						c0-0.1,0.1-0.2,0.1-0.4c0.2-0.6,0.4-1.2,0.6-1.8C163.9,69.9,163.9,69.7,164,69.5z"/>
					<path class="st26" d="M127.8,112.7c0.1-0.4,0.1-0.7,0.2-1.1c0-0.3,0.1-0.6,0.1-1c0-0.4,0-0.8,0.1-1.2c0-0.3,0-0.7,0-1
						c0-0.4,0-0.9-0.1-1.3c0-0.4,0-0.7-0.1-1.1c-0.1-0.5-0.1-0.9-0.2-1.4c-0.1-0.4-0.1-0.7-0.2-1.1c-0.1-0.5-0.2-1-0.4-1.6
						c-0.1-0.4-0.2-0.7-0.3-1.1c-0.2-0.6-0.4-1.2-0.6-1.8c-0.1-0.3-0.2-0.6-0.3-1c-0.3-1-0.7-2-1.1-3L89.2,72.8c0.4,1,0.8,2,1.1,3
						c0.1,0.3,0.2,0.6,0.3,1c0.2,0.6,0.4,1.3,0.6,1.9c0.1,0.4,0.2,0.7,0.3,1.1c0.1,0.5,0.3,1.1,0.4,1.6c0.1,0.4,0.1,0.7,0.2,1.1
						c0.1,0.5,0.2,1,0.2,1.4c0,0.4,0.1,0.7,0.1,1.1c0,0.4,0.1,0.9,0.1,1.3c0,0.3,0,0.7,0,1c0,0.4,0,0.8-0.1,1.2c0,0.3-0.1,0.6-0.1,1
						c-0.1,0.4-0.1,0.8-0.2,1.1c-0.1,0.3-0.2,0.6-0.2,0.9c-0.1,0.4-0.2,0.7-0.3,1c-0.1,0.3-0.2,0.6-0.4,0.9
						c-0.1,0.3-0.3,0.6-0.4,0.9c-0.2,0.3-0.4,0.7-0.6,1c-0.1,0.2-0.2,0.4-0.3,0.5c-0.3,0.4-0.6,0.9-1,1.3c0,0.1-0.1,0.1-0.1,0.2
						c-0.4,0.5-0.8,0.9-1.3,1.4c-0.3,0.2-0.6,0.5-0.8,0.7c-0.3,0.2-0.5,0.5-0.8,0.7c-0.1,0.1-0.2,0.1-0.3,0.2
						c-0.5,0.3-0.9,0.6-1.4,0.9c-0.2,0.1-0.3,0.2-0.5,0.3c-0.5,0.3-0.9,0.5-1.4,0.8c-0.2,0.1-0.4,0.2-0.7,0.3
						c-0.7,0.3-1.5,0.7-2.3,1c-0.7,0.3-1.4,0.5-2.2,0.8c-0.2,0.1-0.4,0.1-0.7,0.2c-0.5,0.2-1.1,0.3-1.6,0.5
						c-0.2,0.1-0.4,0.1-0.7,0.2c-0.8,0.2-1.6,0.4-2.4,0.7l35.9,22.2c0.8-0.2,1.6-0.4,2.4-0.6c0.2-0.1,0.5-0.1,0.7-0.2
						c0.5-0.2,1.1-0.3,1.6-0.5c0.1,0,0.3-0.1,0.4-0.1c0.1,0,0.2-0.1,0.3-0.1c0.8-0.3,1.5-0.5,2.2-0.8c0.8-0.3,1.5-0.7,2.3-1
						c0.2-0.1,0.4-0.2,0.7-0.3c0.4-0.2,0.8-0.4,1.1-0.6c0.1-0.1,0.2-0.1,0.3-0.2c0.2-0.1,0.3-0.2,0.5-0.3c0.5-0.3,1-0.6,1.4-0.9
						c0.1-0.1,0.2-0.1,0.3-0.2c0,0,0.1-0.1,0.1-0.1l0,0c0.3-0.2,0.5-0.4,0.7-0.6c0.3-0.2,0.6-0.5,0.8-0.7c0,0,0.1-0.1,0.1-0.1
						c0.4-0.4,0.8-0.8,1.2-1.3c0,0,0,0,0,0c0-0.1,0.1-0.1,0.1-0.2c0.3-0.4,0.6-0.7,0.8-1.1c0-0.1,0.1-0.1,0.1-0.2
						c0.1-0.2,0.2-0.3,0.3-0.5c0.1-0.2,0.3-0.4,0.4-0.6c0.1-0.1,0.1-0.2,0.2-0.3c0.2-0.3,0.3-0.6,0.4-0.9c0.1-0.2,0.2-0.4,0.2-0.5
						c0-0.1,0.1-0.2,0.1-0.3c0.1-0.3,0.2-0.7,0.3-1C127.7,113.3,127.8,113,127.8,112.7z"/>
				</g>
				<g>
					<defs>
						<path id="SVGID_15_" d="M125.1,95L89.2,72.8c3.2-4.3,6.7-8.4,10.5-12.3l35.9,22.2C131.8,86.6,128.3,90.7,125.1,95z"/>
					</defs>
					<use xlink:href="#SVGID_15_"  style="overflow:visible;fill:#348F9E;"/>
					<clipPath id="SVGID_16_">
						<use xlink:href="#SVGID_15_"  style="overflow:visible;"/>
					</clipPath>
					<g class="st35">
						<path class="st29" d="M125.1,95L89.2,72.8c1.8-2.4,3.7-4.8,5.7-7.1l35.9,22.2C128.8,90.2,126.9,92.5,125.1,95"/>
						<path class="st29" d="M130.8,87.9L94.9,65.7c1.5-1.8,3.1-3.5,4.8-5.2l35.9,22.2C133.9,84.4,132.3,86.1,130.8,87.9"/>
					</g>
				</g>
				<g>
					<path class="st36" d="M288.1,122c-16.2,15.3-16.6,25.7-1.2,36.9c-1.1,5.2-2.5,10.4-4.3,15.4c-2.8,0.7-5.3,1.5-7.5,2.4
						c-13.5,5.5-16.3,14.6-10.1,30.7c-3.2,4.3-6.7,8.4-10.5,12.3c-7.4-2.3-13.2-2.7-17.7-0.9c-6.7,2.7-10.6,10.2-12.7,23.1
						c-2.4,1.2-4.9,2.3-7.4,3.4c-2.5,1-5.1,1.9-7.6,2.7c-7.2-9.2-13.5-12.5-20.2-9.8c-4.5,1.8-9.2,6.4-14.4,13.8
						c-4.8-0.4-9.4-1.2-13.9-2.4c-1.6-17.9-7.8-23.4-21.3-18c-2.2,0.9-4.6,2.1-7.3,3.6c-3.6-2.9-7-6.1-10-9.6
						c8.1-20.7,3.4-29.1-16.5-29.8c-0.8-2.5-1.5-5-2.1-7.5c-0.6-2.6-1.1-5.2-1.4-7.8c16.2-15.3,16.6-25.7,1.2-36.9
						c1.1-5.2,2.5-10.4,4.3-15.4c2.8-0.7,5.3-1.5,7.5-2.4c13.5-5.5,16.3-14.6,10.1-30.7c3.2-4.3,6.7-8.4,10.5-12.3
						c7.4,2.3,13.2,2.7,17.8,0.9c6.7-2.7,10.6-10.2,12.7-23.1c2.4-1.2,4.9-2.3,7.4-3.4c2.5-1,5-1.9,7.6-2.7
						c7.2,9.2,13.5,12.5,20.2,9.8c4.5-1.8,9.2-6.4,14.4-13.8c4.7,0.4,9.4,1.2,13.9,2.4c1.6,17.9,7.8,23.4,21.3,18
						c2.2-0.9,4.6-2.1,7.3-3.6c3.6,2.9,7,6.1,10,9.6c-8.1,20.7-3.4,29.1,16.5,29.8c0.8,2.5,1.5,5,2.1,7.5
						C287.2,116.8,287.7,119.4,288.1,122z M245.7,132.7c-5.6-28.9-32.8-44-60.7-33.8c-0.6,0.2-1.2,0.5-1.8,0.7
						c-26.9,10.9-44.2,41.8-38.8,70.1c5.6,28.9,32.8,44,60.7,33.8c0.6-0.2,1.2-0.5,1.8-0.7C233.8,191.9,251.1,160.9,245.7,132.7"/>
				</g>
				<g>
					<defs>
						<path id="SVGID_17_" d="M166,60.5l-35.9-22.2c2.4-1.2,4.9-2.3,7.4-3.4c2.5-1,5-1.9,7.6-2.7L181,54.5c-2.5,0.8-5,1.7-7.6,2.7
							C170.9,58.2,168.4,59.3,166,60.5z"/>
					</defs>
					<use xlink:href="#SVGID_17_"  style="overflow:visible;fill:#348F9E;"/>
					<clipPath id="SVGID_18_">
						<use xlink:href="#SVGID_17_"  style="overflow:visible;"/>
					</clipPath>
					<g class="st37">
						<path class="st29" d="M166,60.5l-35.9-22.2c2.4-1.2,4.9-2.3,7.4-3.4c1.6-0.6,3.2-1.2,4.8-1.8l35.9,22.2
							c-1.6,0.5-3.2,1.1-4.8,1.8C170.9,58.2,168.4,59.3,166,60.5"/>
						<path class="st29" d="M178.2,55.4l-35.9-22.2c0.9-0.3,1.9-0.6,2.8-0.9L181,54.5C180,54.7,179.1,55.1,178.2,55.4"/>
					</g>
				</g>
			</g>
		</g>
	</g>
	<g>
		<path class="st0" d="M135.6,409.7c0,11.4-25.5,20.6-57.1,20.6c-31.5,0-57.1-9.2-57.1-20.6c0-11.4,25.5-20.6,57.1-20.6
			C110,389.1,135.6,398.3,135.6,409.7z"/>
		<g>
			<g>
				<g>
					<g>
						<polygon class="st2" points="85.9,415 85.2,402.9 93.3,402.9 92.7,415 						"/>
					</g>
					<path class="st38" d="M85,418.1c4,1.7,8.3-0.1,8.3-0.1l14.2-5.7c3.1-2-0.9-3.4-0.9-3.4c-2.4-1.1-6.2,0.2-6.2,0.2l-7.6,1.7
						c-2.5,2.7-7.2,0.9-7.2,0.9S84.5,413.8,85,418.1z"/>
					<path class="st7" d="M85,418.1c0,0,4.4,1.5,8.3-0.1l13.9-5.6c0,0,2.1-1,0.9-2.5c0,0,1.1,0.3,0.5,3.8c-0.4,0.5-1.7,1.2-4.2,2.4
						c-4.4,2-8.8,4.2-13.6,5.1c-1.3,0.2-2.8,0.2-4.1-0.1c-0.3-0.1-1.9-0.5-1.9-0.9V418.1z"/>
					<path class="st39" d="M85,418.1l0.7,0.2l0.7,0.2c0.5,0.1,1,0.1,1.5,0.2c0.5,0,1,0,1.5,0c0.5,0,1-0.1,1.5-0.2
						c0.5-0.1,1-0.2,1.4-0.4c0.5-0.1,0.9-0.3,1.4-0.5l2.7-1.2l2.7-1.2c0.9-0.4,1.8-0.8,2.8-1.2c1.8-0.8,3.7-1.5,5.5-2.3l0,0
						c0.3-0.2,0.6-0.4,0.8-0.6c0.2-0.2,0.2-0.5,0.1-0.7c-0.1-0.3-0.4-0.6-0.7-0.8c-0.3-0.2-0.6-0.4-0.9-0.6c0.4,0.1,0.7,0.2,1.1,0.4
						c0.3,0.2,0.7,0.4,1,0.8c0.1,0.2,0.2,0.4,0.2,0.7c0,0.3-0.1,0.5-0.2,0.7c-0.3,0.4-0.6,0.6-0.9,0.9l0,0l0,0
						c-1.8,0.8-3.6,1.6-5.5,2.4c-0.9,0.4-1.8,0.8-2.8,1.2l-2.8,1.1l-2.8,1.1c-0.5,0.2-1,0.4-1.5,0.5c-0.5,0.1-1,0.2-1.5,0.3
						c-0.5,0.1-1,0.1-1.5,0.1c-0.5,0-1,0-1.5-0.1c-0.5-0.1-1-0.2-1.5-0.3c-0.2-0.1-0.5-0.2-0.7-0.2L85,418.1z"/>
				</g>
			</g>
			<g>
				<g>
					<g>
						<polygon class="st2" points="57,408.4 56.3,396.3 64.4,396.3 63.8,408.4 						"/>
					</g>
					<path class="st38" d="M56.1,411.5c4,1.7,8.3-0.1,8.3-0.1l14.2-5.7c3.1-2-0.9-3.4-0.9-3.4c-2.4-1.1-6.2,0.2-6.2,0.2l-7.6,1.7
						c-2.5,2.7-7.2,0.9-7.2,0.9S55.6,407.2,56.1,411.5z"/>
					<path class="st7" d="M56.1,411.5c0,0,4.4,1.5,8.3-0.1l13.9-5.6c0,0,2.1-1,0.9-2.5c0,0,1.1,0.3,0.5,3.8
						c-0.4,0.5-1.7,1.2-4.2,2.4c-4.4,2-8.8,4.2-13.6,5.1c-1.3,0.2-2.8,0.2-4.1-0.1c-0.3-0.1-1.9-0.5-1.9-0.9V411.5z"/>
					<path class="st39" d="M56.1,411.5l0.7,0.2l0.7,0.2c0.5,0.1,1,0.1,1.5,0.2c0.5,0,1,0,1.5,0c0.5,0,1-0.1,1.5-0.2
						c0.5-0.1,1-0.2,1.4-0.4c0.5-0.1,0.9-0.3,1.4-0.5l2.7-1.2l2.7-1.2c0.9-0.4,1.8-0.8,2.8-1.2c1.8-0.8,3.7-1.5,5.5-2.3l-0.1,0
						c0.3-0.2,0.6-0.4,0.8-0.6c0.2-0.2,0.2-0.5,0.1-0.7c-0.1-0.3-0.4-0.6-0.7-0.8c-0.3-0.2-0.6-0.4-0.9-0.6c0.4,0.1,0.7,0.2,1.1,0.4
						c0.3,0.2,0.7,0.4,1,0.8c0.1,0.2,0.2,0.4,0.2,0.7c0,0.3-0.1,0.5-0.2,0.7c-0.3,0.4-0.6,0.6-0.9,0.9l0,0l0,0
						c-1.8,0.8-3.6,1.6-5.5,2.4c-0.9,0.4-1.8,0.8-2.8,1.2l-2.8,1.1l-2.8,1.1c-0.5,0.2-1,0.4-1.5,0.5c-0.5,0.1-1,0.2-1.5,0.3
						c-0.5,0.1-1,0.1-1.5,0.1c-0.5,0-1,0-1.5-0.1c-0.5-0.1-1-0.2-1.5-0.3c-0.2-0.1-0.5-0.2-0.7-0.2L56.1,411.5z"/>
				</g>
			</g>
			<path class="st40" d="M58.9,289.8c-0.8,4.1,0.3,9.9,1.5,13.9c2.5,8.7,15.2,13.7,22.9,15.1c0,0,14.3,0.8,13.6-20.2L58.9,289.8z"/>
			<path class="st1" d="M83.2,246.9c0,0,6.1-15.6,15.9-30.7l3.8,2.1c0,0-4.4,25.9-11.6,34.9L83.2,246.9z"/>
			<path class="st1" d="M89.3,240.7c0,0,7.2,7.2,6.1,11.9c0,0-0.7,2.6-2.8,2.5c0,0-2.9,1-12.7-7.5L89.3,240.7z"/>
			<path class="st41" d="M59.6,219.3c0,0-2.5,5.2,2.1,9.8L80.8,248c0,0,6.5,0.8,11.3-10.1l-17.5-17.2
				C74.6,220.6,64.6,213.7,59.6,219.3z"/>
			<path class="st13" d="M80.1,247.3c3.1,0.1,5.3-1.5,7.5-3.9c1-1.1,2.2-2.9,1.7-4.4c-0.7-2.5-5.4-3.4-7.4-4.2
				c-3.4-1.4-6.8-2.7-10.3-3.8c-3.2-1.1-6.6-2-9.3-4.1c-1.9-1.6-2.8-3.7-3.1-6.1c0.2-0.8,0.4-1.3,0.4-1.3c5-5.6,15,1.3,15,1.3
				l17.5,17.2C87.3,248.8,80.8,248,80.8,248L80.1,247.3z"/>
			<path class="st40" d="M96.7,304.2l0.2,39l-2,66.3c0,0-4.1,4.1-11.5,1.8L77.7,345l-1.2-44.4L96.7,304.2z"/>
			<path class="st40" d="M76.5,304.3l-17.9-9.6l0.5,45L56,405.2c4.2,3.5,10.2-0.3,10.2-0.3l9.6-60.6L76.5,304.3z"/>
			<polygon class="st1" points="88.7,216.1 85.6,230.2 75.7,224.9 78,213 			"/>
			<path class="st1" d="M88.6,217.6c-2.6-0.2-5.3-0.6-7.8-1.2c-3.5-0.8-6.2-6.3-8.7-8.8c-1.6-1.6-2.5-4-3.6-6
				c-3.4-6.3-3.1-13,1.1-19.2c2-3,6.1-5.8,9.7-6.2c7.1-0.7,15.8,2.9,19.5,9.7c2.3,4.1-0.9,9.4,2.7,13c0,0,3.2,2,0.5,4
				c0,0-2.9,1.4-3.2,3.5c0,0-0.2,0.5-0.5,4.3c-0.2,1.3,0.1,3.9-0.8,5c-1.7,2.2-4.9,2.2-7.4,2C89.6,217.6,89.1,217.6,88.6,217.6z"/>
			<path class="st42" d="M84.6,210.9c0.2,2.6,1.2,5.9,4.1,6.6c0.5,0.1,1,0.1,1.4,0.1c2.5,0.2,5.7,0.2,7.4-2c0.9-1.1,0.6-3.7,0.8-5
				c0.1-0.9,0.3-3.2,0.4-3.8c-0.9-0.2-1.8-0.3-2.7-0.3c-1,0-2,0.2-2.8,0.6c-0.8,0.4-1.8,1-2.6,0.4c-0.6-0.4-0.9-1.2-1.1-1.9
				c-0.4-1.5-1.2-4.2-1.4-5.7l-1.1,0.2c0,0-1.2,5.2-1.2,5.2C85.2,207.5,84.4,208.9,84.6,210.9z"/>
			<path class="st41" d="M99.1,304.3L99,239.6c0.6-3.9-0.5-6.3-2.4-7.8c-1.8-1.4-8-4.9-10-6c0,0-1.6,0.6-6.2-1.5
				c0,0-3.3-1.3-4.1-3.3c-2.3-0.7-7.3-2.7-11.1-3.4c-5.3-0.9-5.6,4.1-6.2,8c0,0-2.3,35.4-1.3,66.8C57.8,292.5,74,307.6,99.1,304.3z"
				/>
			<path class="st13" d="M99,239.6c0.6-3.9-0.5-6.3-2.4-7.8c-0.7-0.5-2-1.4-3.5-2.3c0.8,1.7,0.5,3.5-0.8,5.6
				c-0.9,1.4-1.9,2.8-2.7,4.3c-1,2-1.2,4.1-1.4,6.3c-0.4,5-0.4,10.1-0.1,15.2c0.5,7,2.5,13.8,2.4,20.8c-0.1,6.6-2.4,12.7-8.6,15.9
				c-3.3,1.7-6.9,2.6-10.6,3.1c7,2.9,16.4,5.1,27.6,3.6L99,239.6z"/>
			<path class="st43" d="M95.4,410.3c-1.6,1.2-4.8,3.7-12,2.1c0,0-0.6-0.3-0.7-1l-0.3-5c0,0,0-1.3,0.7-1c0,0,4.9,2.2,11.6-1.4
				c0,0,0.7-0.6,0.9,0.5l0.1,4.4C95.8,409,96,409.9,95.4,410.3z"/>
			<path class="st43" d="M67,404.5c-1.6,1.2-5,4.2-10.9,1.4c0,0-0.6-0.3-0.7-1l0.4-4.3c0,0,0-1.3,0.7-1c0,0,3.8,2.9,10.5-0.8
				c0,0,0.7-0.6,0.9,0.5l-0.3,3.7C67.7,403.1,67.5,404.1,67,404.5z"/>
			<g>
				<path class="st1" d="M124.5,237c0,0-0.4-10.6,3.1-31.3l4.2,0.3c0,0,6.7,24.2,1.7,34.2L124.5,237z"/>
				<path class="st1" d="M107.9,232.1l20.5,1.6c0,0,5.4,1.3,5.5,5.7c0,0-0.4,4.2-7.2,4.3l-20.4-0.1L107.9,232.1z"/>
				<path class="st1" d="M131.8,206c1.7-7.7,1.8-9.5,1.8-9.5c0.9-4.6-2.1-4.8-2.1-4.8c-0.9-2.4-2.8-0.3-2.8-0.3
					c-1.1,0.1-1.4,1.3-1.4,1.3l0.1,6.8c-0.3,1.1-1.1,0.2-1.1,0.2l-2-2.9c-1.1-1.3-1.7,0.2-1.7,0.2l4.9,9.1L131.8,206z"/>
			</g>
			<path class="st41" d="M87.7,232.7c0,0,1-7.2,15.2-4.7l15.6,3.5c0,0,4.3,8.8-1.6,14.9l-25.3-1.6C91.6,244.8,84.1,240.6,87.7,232.7
				z"/>
			<path class="st44" d="M77.2,217.2l-5.1,2.5c0,0,5.3,7.2,17.1,7.7c0.2,0-1.7-6-1.7-6L77.2,217.2z"/>
			<path class="st42" d="M64.1,189.4c0,0-2.8,10.6,6.9,20.1l6.4,5.9l4.5-1.2c0,0,0.7-9.5,0.7-9.5c0.1-0.8-0.8-1.8-1.1-2.5
				c-0.4-0.9-0.5-1.7-0.5-2.6c0-1.8,0.6-3.9,2.9-3.4c1.9,0.4,2.5,2.7,2.9,4.3l1.1-0.2c-0.8-5.4,3.2-7.4,3.2-7.4
				c-1-5.7,4.3-5.4,4.3-5.4s6.6-0.1,5.8-6.3c0,0,0.4-3.6-5.2-6.9c-10.9-1.3-15.7-0.3-15.7-0.3c-2.3,0.3-4.8,1-7.1,2.1
				c-2.1,1-4.1,2.4-5.4,4.1c0,0-1.4,2.1,0.3,4.7C68.2,184.8,64.6,184.8,64.1,189.4z"/>
			<path class="st42" d="M64.1,189.4c0,0-2.8,10.6,6.9,20.1l6.4,5.9l4.5-1.2c0,0,0.7-9.5,0.7-9.5c0.1-0.8-0.8-1.8-1.1-2.5
				c-0.4-0.9-0.5-1.7-0.5-2.6c0-1.8,0.6-3.9,2.9-3.4c1.9,0.4,2.5,2.7,2.9,4.3l1.1-0.2c-0.8-5.4,3.2-7.4,3.2-7.4
				c-1-5.7,4.3-5.4,4.3-5.4s6.6-0.1,5.8-6.3c0,0,0.4-3.6-5.2-6.9c-10.9-1.3-15.7-0.3-15.7-0.3c-2.3,0.3-4.8,1-7.1,2.1
				c-2.1,1-4.1,2.4-5.4,4.1c0,0-1.4,2.1,0.3,4.7C68.2,184.8,64.6,184.8,64.1,189.4z"/>
			<g>
				<path class="st1" d="M86,204.5c-1.8,0.9-4.2-0.3-5.4-2.7c-1.2-2.4-0.7-5,1.1-5.9c1.8-0.9,4.2,0.3,5.4,2.7
					C88.3,201,87.8,203.6,86,204.5z"/>
				<path class="st45" d="M85.7,201.9c-0.6-0.2-0.5-0.4-0.6-0.9c0-0.4-0.2-0.7-0.4-0.9c-0.3-0.3-0.5-0.3-0.8-0.2c-0.2,0-0.5,0-0.7,0
					c-0.7,0.1-1-0.2-0.9-0.9c0.1-0.9,1.1-1.3,2-1.4c0.4-0.1,0.5-0.3,0-0.5c-1.6-0.6-2.8,0.8-2.9,2.3c0,0.5,0.2,1.2,0.8,1.4
					c0,0,0.1,0,0.1,0c0.3,0.5,0.8,0.7,1.1,1.2c0,0.1,0.1,0.1,0.2,0.1c0.1,0.2,0.2,0.4,0.3,0.6c0.4,0.5,1.1,0.1,1.6,0.2
					C86,202.8,86.3,202,85.7,201.9z"/>
			</g>
		</g>
	</g>
	<g>
		<path class="st1" d="M433.1,228.6c2.4-5.9,0.8-10.3,0.8-10.3l-3.8-28c-1.5-9.3-8.1-7.4-8.1-7.4c-7.1,1.2-3.9,10-3.9,10l7.1,30.5
			C425.2,223.5,425.5,231.6,433.1,228.6z"/>
		<g>
			<path class="st2" d="M392.3,248.1c-0.5-0.4-1.9,0.9-3.5-0.6c1.6-1.6,2.6-2.5,3.1-2.8c0.8-0.4,1.1-0.2,1.9,0.2
				c0.6,0.3,1.2,0.8,1.9,1c0.7,0.2,2.5-0.7,3.3-0.9l0.6,0.7c0,0-2.3,2.9-4.4,4.8L392.3,248.1z"/>
			<path class="st2" d="M388.9,244.3c1.1-0.7,3.5-2.1,3.8-2.1l3-0.2l1.8-0.7c0.7,1.9,1.4,3.5,1.4,3.5c-2.3,1.2-2.8,1.6-2.8,1.6
				s-1.2,0.6-3.3-1l-1-0.6C391.8,244.8,389.7,246,388.9,244.3z"/>
			<path class="st2" d="M395.7,249.9c0.6-0.6,0-1,0-1c-0.5-0.6-1-0.1-1-0.1l0.3-0.2c0.1-0.4-0.4-0.8-0.4-0.8c-0.5-0.5-1,0.1-1,0.1
				l0.5-0.5c0.2-0.4-0.4-0.8-0.4-0.8c-0.7-0.6-1.1,0-1.1,0l-0.2,0.2c0,0-0.8-1.7-2.6-0.1l-0.8,0.7c0,0,0.2,1,1.7,1
				c0,0,0.3,1.2,1.4,1c0,0,0.4,0.9,1.3,0.8c0,0,0.5,1,1.2,0.7L395.7,249.9z"/>
		</g>
		<path class="st14" d="M420.2,179.1c0,0-5.5,2.6-3.3,10.9c0,0,1,10.2,3,16.8c0,0,9.4,0.4,13.6-5.7
			C433.5,201.1,432.1,181.7,420.2,179.1z"/>
		<path class="st1" d="M432.8,229.3l-34.2,17l-2.5-4.1l29.9-20.4c0,0,3.4-2.7,5.5,0.3C431.4,222.2,435,225.1,432.8,229.3z"/>
	</g>
</g>
</svg>
