<svg id="_x33_0" enable-background="new 0 0 64 64" height="512" viewBox="0 0 64 64" width="512" xmlns="http://www.w3.org/2000/svg"><g><g><g><path d="m10 50v12h-2c-3.31 0-6-2.69-6-6 0-1.66.67-3.16 1.76-4.24 1.08-1.09 2.58-1.76 4.24-1.76z" fill="#aab2bd"/></g><g><path d="m61.08 54.62c.56.23.92.77.92 1.38s-.36 1.15-.92 1.38l-4.9 2.04-.18-.42v-6l.18-.42z" fill="#ccd1d9"/></g><g><path d="m50 50 6.18 2.58-.18.42v6l.18.42-6.18 2.58v-6z" fill="#ccd1d9"/></g><g><path d="m32 62h-18v-6h11c0 1.1.9 2 2 2l.03.12c.57 2.28 2.62 3.88 4.97 3.88z" fill="#4fc1e9"/></g><g><path d="m50 56v6h-18c1.18 0 2.28-.4 3.15-1.08.88-.69 1.53-1.66 1.82-2.8l.03-.12c.55 0 1.05-.22 1.41-.59.37-.36.59-.86.59-1.41z" fill="#4fc1e9"/></g><g><path d="m25.7 50c.05.12.09.25.13.38-.08.06-.17.13-.24.21-.37.36-.59.86-.59 1.41 0 1.1.9 2 2 2-.55 0-1.05.22-1.41.59-.37.36-.59.86-.59 1.41h-11v-6z" fill="#ff826e"/></g><g><path d="m50 50v6h-11c0-1.1-.9-2-2-2 .55 0 1.05-.22 1.41-.59.37-.36.59-.86.59-1.41 0-.66-.33-1.26-.83-1.62.04-.13.08-.26.13-.38z" fill="#ff826e"/></g><g><path d="m14 56v6h-4v-12h4z" fill="#e6e9ed"/></g><g><path d="m32 62c-2.35 0-4.4-1.6-4.97-3.88l-.03-.12h10l-.03.12c-.29 1.14-.94 2.11-1.82 2.8-.87.68-1.97 1.08-3.15 1.08z" fill="#aab2bd"/></g><g><path d="m37 50c.44 0 .84.14 1.17.38.5.36.83.96.83 1.62 0 .55-.22 1.05-.59 1.41-.36.37-.86.59-1.41.59h-10c-1.1 0-2-.9-2-2 0-.55.22-1.05.59-1.41.07-.08.16-.15.24-.21.33-.24.73-.38 1.17-.38h2 3 3z" fill="#ccd1d9"/></g><g><path d="m37 54c1.1 0 2 .9 2 2 0 .55-.22 1.05-.59 1.41-.36.37-.86.59-1.41.59h-10c-1.1 0-2-.9-2-2 0-.55.22-1.05.59-1.41.36-.37.86-.59 1.41-.59z" fill="#ccd1d9"/></g><g><path d="m48.53 28h-1.53v-1.05c0-1.19-.71-2.25-1.8-2.7-.01 0-.03-.01-.04-.01-1.09-.46-2.35-.22-3.19.62l-.75.75-2.83-2.83.75-.75c.84-.84 1.08-2.1.62-3.19 0-.01-.01-.03-.01-.04-.45-1.09-1.51-1.8-2.7-1.8h-1.05v-1.53c-1.28-.31-2.62-.47-4-.47-4.11 0-7.86 1.46-10.8 3.87 2.91 1.54 4.8 3.54 4.8 4.13 0 .94-4.7 5.37-10.73 5.94-.18.99-.27 2.01-.27 3.06 0 9.57 8.23 10.9 10.7 18h12.6c2.47-7.1 10.7-8.43 10.7-18 0-1.38-.16-2.72-.47-4z" fill="#ffeaa7"/></g><g><path d="m32 50h-3l-1-12-2.17-2.89c-.54-.72-.83-1.59-.83-2.49 0-.99.56-1.9 1.45-2.34.36-.19.76-.28 1.17-.28.91 0 1.8.21 2.62.62l.76.38 1-1 1 1 .76-.38c.82-.41 1.71-.62 2.62-.62.41 0 .81.09 1.17.28.89.44 1.45 1.35 1.45 2.34 0 .9-.29 1.77-.83 2.49l-2.17 2.89-1 12z" fill="#fcd770"/></g><g><path d="m14 17c-3.31 0-6 2.69-6 6s2.69 6 6 6c-6.63 0-12-5-12-6s5.37-6 12-6z" fill="#ccd1d9"/></g><g><path d="m21.2 18.87c2.91 1.54 4.8 3.54 4.8 4.13 0 .94-4.7 5.37-10.73 5.94-.42.04-.84.06-1.27.06 3.31 0 6-2.69 6-6s-2.69-6-6-6c2.7 0 5.19.83 7.2 1.87z" fill="#ccd1d9"/></g><g><path d="m14 17c3.31 0 6 2.69 6 6s-2.69 6-6 6-6-2.69-6-6 2.69-6 6-6z" fill="#69d6f4"/></g><g><circle cx="14" cy="23" fill="#4fc1e9" r="2"/></g><g><path d="m39.75 11.2c0-.01.01-.03.01-.04.46-1.09.22-2.35-.62-3.19l-.75-.75 2.83-2.83.75.75c.84.84 2.1 1.08 3.19.62.01 0 .03-.01.04-.01 1.09-.45 1.8-1.51 1.8-2.7v-1.05h4v1.05c0 1.19.71 2.25 1.8 2.7.01 0 .03.01.04.01 1.09.46 2.35.22 3.19-.62l.75-.75 2.83 2.83-.75.75c-.84.84-1.08 2.1-.62 3.19 0 .01.01.03.01.04.45 1.09 1.51 1.8 2.7 1.8h1.05v4h-1.05c-1.19 0-2.25.71-2.7 1.8 0 .01-.01.03-.01.04-.46 1.09-.22 2.35.62 3.19l.75.75-2.83 2.83-.75-.75c-.84-.84-2.1-1.08-3.19-.62-.01 0-.03.01-.04.01-1.09.45-1.8 1.51-1.8 2.7v1.05h-2.47-1.53v-1.05c0-1.19-.71-2.25-1.8-2.7-.01 0-.03-.01-.04-.01-1.09-.46-2.35-.22-3.19.62l-.75.75-2.83-2.83.75-.75c.84-.84 1.08-2.1.62-3.19 0-.01-.01-.03-.01-.04-.45-1.09-1.51-1.8-2.7-1.8h-1.05v-1.53-2.47h1.05c1.19 0 2.25-.71 2.7-1.8z" fill="#fcd770"/></g><g><circle cx="49" cy="15" fill="#69d6f4" r="7"/></g></g><g><path d="m60.945 18h2.055v-6h-2.055c-.778 0-1.473-.464-1.786-1.222-.303-.726-.143-1.551.409-2.102l1.455-1.457-4.243-4.243-1.456 1.456c-.552.552-1.379.71-2.141.393-.719-.297-1.183-.992-1.183-1.77v-2.055h-6v2.055c0 .778-.464 1.473-1.222 1.786-.726.303-1.551.143-2.102-.409l-1.456-1.456-4.244 4.244 1.456 1.456c.551.551.711 1.376.393 2.141-.297.719-.992 1.183-1.77 1.183h-2.055v2.254c-.988-.166-1.992-.254-3-.254-3.955 0-7.807 1.326-10.934 3.721-2.094-1-4.554-1.721-7.066-1.721-6.678 0-13 5.094-13 7s6.322 7 13 7c.042 0 .083-.005.124-.006-.074.666-.124 1.335-.124 2.006 0 6.046 3.049 9.02 5.997 11.896 1.622 1.582 3.164 3.103 4.183 5.104h-16.18c-3.86 0-7 3.141-7 7s3.14 7 7 7h42.2l11.263-4.692c.933-.391 1.537-1.296 1.537-2.308s-.604-1.917-1.538-2.308l-11.262-4.692h-10.38c1.019-2.002 2.561-3.523 4.183-5.104 2.948-2.876 5.997-5.85 5.997-11.896 0-1.008-.088-2.012-.254-3h2.254v-2.055c0-.778.464-1.473 1.222-1.786.727-.303 1.551-.142 2.102.409l1.456 1.456 4.244-4.244-1.456-1.456c-.551-.551-.711-1.376-.393-2.141.297-.719.992-1.183 1.77-1.183zm-51.945 5c0-2.757 2.243-5 5-5s5 2.243 5 5-2.243 5-5 5-5-2.243-5-5zm11-3.587c2.608 1.217 4.449 2.884 4.925 3.587-.476.703-2.318 2.37-4.925 3.587.631-1.051 1-2.275 1-3.587s-.369-2.536-1-3.587zm-16.925 3.587c.476-.703 2.317-2.37 4.925-3.587-.631 1.051-1 2.275-1 3.587s.369 2.536 1 3.587c-2.608-1.217-4.449-2.884-4.925-3.587zm25.898 14.63-2.343-3.124c-.406-.541-.63-1.212-.63-1.888 0-.617.343-1.171.895-1.447.223-.112.473-.171.723-.171.75 0 1.5.177 2.171.513l1.409.704.802-.803.802.803 1.41-.705c.669-.335 1.42-.512 2.17-.512.25 0 .5.059.724.171.551.276.894.83.894 1.447 0 .676-.224 1.347-.629 1.888l-2.344 3.124-.947 11.37h-1.08v-14h-2v14h-1.08zm8.027 13.37c.551 0 1 .448 1 1s-.449 1-1 1h-10c-.551 0-1-.448-1-1s.449-1 1-1zm1 5c0 .552-.449 1-1 1h-10c-.551 0-1-.448-1-1s.449-1 1-1h10c.551 0 1 .448 1 1zm-13.22-2c-.261.289-.463.626-.596 1h-9.184v-4h9.184c-.112.314-.184.648-.184 1 0 .771.301 1.468.78 2zm-11.78 7h-2v-10h2zm2-4h9.184c.33.926 1.096 1.638 2.056 1.89.277.793.689 1.512 1.234 2.11h-12.474zm13.476 2h7.048c-.73 1.214-2.047 2-3.524 2s-2.794-.786-3.524-2zm9.284-.11c.959-.253 1.726-.965 2.056-1.89h9.184v4h-12.474c.544-.598.957-1.317 1.234-2.11zm13.24-7.39 4 1.667v5.667l-4 1.666zm-2 3.5h-9.184c-.133-.374-.335-.711-.596-1 .48-.532.78-1.229.78-2 0-.352-.072-.686-.184-1h9.184zm-46 1c0-2.757 2.243-5 5-5h1v10h-1c-2.757 0-5-2.243-5-5zm58 0c0 .202-.121.384-.308.462l-3.692 1.538v-4l3.691 1.538c.188.078.309.26.309.462zm-13-24c0 5.203-2.62 7.759-5.394 10.464-1.897 1.85-3.847 3.761-4.992 6.536h-1.527l.886-10.63 1.999-2.665c.663-.885 1.028-1.981 1.028-3.087 0-1.38-.767-2.62-2-3.236-.5-.25-1.059-.382-1.618-.382-1.059 0-2.119.25-3.064.724l-.12.06-1.198-1.198-1.198 1.197-.119-.059c-.946-.474-2.006-.724-3.065-.724-.559 0-1.118.132-1.618.382-1.234.617-2 1.856-2 3.236 0 1.105.365 2.202 1.029 3.087l1.998 2.665.886 10.63h-1.527c-1.145-2.775-3.095-4.686-4.992-6.536-2.774-2.705-5.394-5.261-5.394-10.464 0-.732.066-1.46.164-2.181 5.817-.902 10.836-5.121 10.836-6.819 0-.955-1.586-2.708-4.007-4.222 2.642-1.798 5.788-2.778 9.007-2.778 1.011 0 2.013.121 3 .308v1.692h2.055c.778 0 1.473.464 1.786 1.222.303.726.143 1.551-.409 2.102l-1.456 1.456 4.243 4.244 1.457-1.456c.551-.552 1.376-.71 2.141-.393.719.297 1.183.992 1.183 1.77v2.055h1.692c.187.987.308 1.989.308 3zm9.314-13.548c-.616 1.477-.287 3.16.84 4.287l.042.042-1.416 1.416-.042-.042c-1.127-1.127-2.811-1.458-4.318-.827-1.47.606-2.42 2.026-2.42 3.617v.055h-2v-.055c0-1.591-.95-3.012-2.452-3.631-1.479-.617-3.16-.287-4.287.84l-.042.042-1.416-1.416.042-.042c1.127-1.127 1.457-2.81.827-4.318-.606-1.47-2.026-2.42-3.617-2.42h-.055v-2h.055c1.591 0 3.012-.95 3.631-2.452.616-1.477.287-3.16-.84-4.287l-.042-.041 1.416-1.416.042.042c1.126 1.127 2.81 1.456 4.318.827 1.47-.607 2.42-2.027 2.42-3.618v-.055h2v.055c0 1.591.95 3.012 2.452 3.631 1.476.616 3.16.287 4.287-.84l.042-.042 1.416 1.416-.042.042c-1.127 1.127-1.457 2.81-.827 4.318.606 1.47 2.027 2.42 3.618 2.42h.054v2h-.055c-1.591 0-3.011.95-3.631 2.452z"/><path d="m49 7c-4.411 0-8 3.589-8 8s3.589 8 8 8 8-3.589 8-8-3.589-8-8-8zm4.46 4h-1.255c-.223-.542-.473-1.028-.73-1.46.76.346 1.433.846 1.985 1.46zm1.54 4c0 .702-.128 1.373-.35 2h-1.849c.121-.624.199-1.288.199-2s-.078-1.376-.199-2h1.849c.222.627.35 1.298.35 2zm-7.757 2c-.15-.612-.243-1.28-.243-2s.093-1.388.243-2h3.514c.15.612.243 1.28.243 2s-.093 1.388-.243 2zm2.749 2c-.333.635-.692 1.148-.992 1.522-.3-.374-.659-.888-.992-1.522zm-6.992-4c0-.702.128-1.373.35-2h1.849c-.121.624-.199 1.288-.199 2s.078 1.376.199 2h-1.849c-.222-.627-.35-1.298-.35-2zm5.008-4c.333-.635.692-1.148.992-1.522.3.374.659.888.992 1.522zm-1.483-1.46c-.256.431-.507.917-.73 1.46h-1.255c.552-.614 1.225-1.114 1.985-1.46zm-1.985 9.46h1.255c.223.542.473 1.028.73 1.46-.76-.346-1.433-.846-1.985-1.46zm6.935 1.46c.256-.431.507-.917.73-1.46h1.255c-.552.614-1.225 1.114-1.985 1.46z"/><path d="m49 43h2v2h-2z"/><path d="m53 43h2v2h-2z"/><path d="m57 43h2v2h-2z"/><path d="m5 10h2v2h-2z"/><path d="m9 10h2v2h-2z"/><path d="m13 10h2v2h-2z"/><path d="m14 20c-1.654 0-3 1.346-3 3s1.346 3 3 3 3-1.346 3-3-1.346-3-3-3zm0 4c-.551 0-1-.449-1-1s.449-1 1-1 1 .449 1 1-.449 1-1 1z"/></g></g></svg>