<svg id="Capa_1" enable-background="new 0 0 512.001 512.001" height="512" viewBox="0 0 512.001 512.001" width="512" xmlns="http://www.w3.org/2000/svg"><g><path d="m138.002 511.999h-137.999v-33.084c0-3.866 3.134-7 7-7h130.999z" fill="#fe646f"/><path d="m20.604 471.914v40.087h-20.603v-33.087c0-3.866 3.134-7 7-7z" fill="#fd4755"/><path d="m438.001 45.726h25c3.866 0 7 3.134 7 7v18c0 3.866-3.134 7-7 7h-18c-3.866 0-7-3.134-7-7z" fill="#fd4755"/><path d="m448.001 55.726h-47.833v-32h40.833c3.866 0 7 3.134 7 7z" fill="#fe646f"/><g><g><path d="m400.168 95.452c-4.267 0-7.726-3.459-7.726-7.726v-80c0-4.268 3.459-7.726 7.726-7.726s7.726 3.459 7.726 7.726v79.999c0 4.268-3.459 7.727-7.726 7.727z" fill="#68748f"/></g></g><path d="m320.001 140.705c-13.255 0-24-10.745-24-24v-16c0-13.255 10.745-24 24-24 13.255 0 24 10.745 24 24v16c0 13.255-10.745 24-24 24z" fill="#ffcebf"/><path d="m330.298 138.385c-3.121 1.483-6.614 2.318-10.302 2.318-13.248 0-23.993-10.745-23.993-23.993v-16.009c0-13.248 10.745-23.993 23.993-23.993 3.688 0 7.18.834 10.302 2.318-8.097 3.853-13.691 12.115-13.691 21.675v16.009c0 9.56 5.594 17.822 13.691 21.675z" fill="#ffb09e"/><path d="m96.002 204.705c-13.255 0-24-10.745-24-24v-16c0-13.255 10.745-24 24-24 13.255 0 24 10.745 24 24v16c0 13.255-10.745 24-24 24z" fill="#ffcebf"/><path d="m106.305 202.39c-3.121 1.483-6.614 2.318-10.302 2.318-13.258 0-24.003-10.744-24.003-24.003v-15.999c0-13.259 10.745-24.003 24.003-24.003 3.688 0 7.18.835 10.302 2.318-8.108 3.853-13.701 12.115-13.701 21.685v15.999c0 9.57 5.594 17.832 13.701 21.685z" fill="#ffb09e"/><path d="m205.543 182.906v36.056l-22.334 11.167c-2.236 1.113-4.708 1.7-7.211 1.7h-47.996v79.87l-7.999 10h-45.997v22.018l-20.395-.01c-11.94-.01-21.613-9.694-21.613-21.634v-90.862c0-17.4 14.114-31.503 31.513-31.503l108.685-.124z" fill="#aee69c"/><path d="m205.543 182.906v7.726l-17.894 8.952-108.685.124c-17.4 0-31.513 14.103-31.513 31.503v90.862c0 10.199 7.057 18.749 16.555 21.026v.618l-10.395-.01c-11.94-.01-21.613-9.694-21.613-21.634v-90.862c0-17.4 14.114-31.503 31.513-31.503l108.685-.124z" fill="#89daa4"/><path d="m416.123 103.685v42.382c0 11.95-9.684 21.634-21.634 21.634h-42.485v80.004l-8.003 10h-47.998l-8.005-10v-79.881h-9.323l-27.269 27.279c-1.226 1.226-2.648 2.246-4.193 3.019l-41.671 20.841v-36.056l24.91-12.455 30.143-30.143c3.029-3.029 7.129-4.729 11.404-4.729l112.208.124v-32.018c0-8.818 7.149-15.958 15.958-15.958 8.819-.001 15.958 7.138 15.958 15.957z" fill="#8ac9fe"/><g fill="#60b7ff"><path d="m272 135.579 14.66.021c-3.987.196-7.768 1.865-10.611 4.708l-30.143 30.143-24.91 12.455v28.33l-15.453 7.726v-36.056l24.91-12.455 30.143-30.143c3.029-3.029 7.129-4.729 11.404-4.729z"/><path d="m303.452 167.824v89.881h-7.448l-8.005-10v-79.881z"/><path d="m407.892 89.726c-4.904 2.72-8.231 7.943-8.231 13.959v32.018l-15.453-.021v-31.998c0-8.818 7.149-15.958 15.958-15.958 2.802.001 5.439.722 7.726 2z"/><path d="m287.453 135.579 96.755.103v.021l-97.383-.103c.206-.021.422-.021.628-.021z"/></g><g><path d="m71.729 319.431c-4.267 0-7.726-3.459-7.726-7.726v-64.299c0-4.268 3.459-7.726 7.726-7.726s7.726 3.459 7.726 7.726v64.299c0 4.267-3.459 7.726-7.726 7.726z" fill="#89daa4"/></g><path d="m182.911 345.138-54.909-33.433h-32-32v160.21h32v-132.314l63.877 30.3v79.803h32.246v-90c-.001-6.227-3.587-11.898-9.214-14.566z" fill="#68748f"/><path d="m64.006 311.7h15.453v160.215h-15.453z" fill="#5d6980"/><path d="m175.328 369.905v79.795h-15.453v-79.795l-48.419-22.973v-7.335z" fill="#5d6980"/><path d="m406.91 281.138-54.909-33.433h-32-32v169.999h32v-142.103l64.207 30.299v69.804l10 10h21.915v-90c0-6.227-3.586-11.898-9.213-14.566z" fill="#68748f"/><path d="m287.999 247.705h15.453v169.998h-15.453z" fill="#5d6980"/><path d="m399.331 305.9v79.805h-5.123l-10-10.001v-69.804l-48.759-22.973v-7.325z" fill="#5d6980"/><path d="m266.002 511.999h-138v-65.295c0-3.866 3.134-7 7-7h131z" fill="#ffe177"/><path d="m148.605 439.7v72.301h-20.604v-65.301c0-3.866 3.134-7 7-7z" fill="#ffd15b"/><path d="m256.002 511.999h138.21v-104.295h-131.21c-3.866 0-7 3.134-7 7z" fill="#8ac9fe"/><path d="m276.605 407.703v104.298h-20.604v-97.298c0-3.866 3.134-7 7-7z" fill="#60b7ff"/><path d="m384.212 511.999h127.788v-129.295c0-3.866-3.134-7-7-7h-120.788z" fill="#aee69c"/><path d="m384.208 375.705h20.604v136.296h-20.604z" fill="#89daa4"/></g></svg>