<svg height="512" viewBox="0 0 512 512" width="512" xmlns="http://www.w3.org/2000/svg"><g id="flat"><path d="m447.99 224a8 8 0 0 1 -7.928-7.009l-10-80a8 8 0 1 1 15.876-1.984l10 80a8 8 0 0 1 -6.946 8.93 8.084 8.084 0 0 1 -1.002.063z" fill="#6ee7f5"/><path d="m417.749 382.664a8.005 8.005 0 0 1 -7.356-11.139l37.656-88.368a8 8 0 0 1 14.72 6.273l-37.657 88.37a8 8 0 0 1 -7.363 4.864z" fill="#6ee7f5"/><path d="m371 456h-83a8 8 0 0 1 0-16h83a8 8 0 0 1 0 16z" fill="#2cbff4"/><path d="m87.994 368a8 8 0 0 1 -7.755-6.062l-16-64a8 8 0 0 1 15.522-3.88l16 64a8.008 8.008 0 0 1 -7.767 9.942z" fill="#2cbff4"/><path d="m152 96a8 8 0 0 1 -2.529-15.591l72-24a8 8 0 0 1 5.06 15.178l-72 24a7.988 7.988 0 0 1 -2.531.413z" fill="#6ee7f5"/><path d="m408 264h-48a8 8 0 0 1 0-16h48a8 8 0 0 1 0 16z" fill="#2cbff4"/><path d="m256 160a8 8 0 0 1 -8-8v-56a8 8 0 0 1 16 0v56a8 8 0 0 1 -8 8z" fill="#2cbff4"/><path d="m188 196a7.976 7.976 0 0 1 -5.657-2.343l-64-64a8 8 0 1 1 11.314-11.314l64 64a8 8 0 0 1 -5.657 13.657z" fill="#2cbff4"/><path d="m152 264h-48a8 8 0 0 1 0-16h48a8 8 0 0 1 0 16z" fill="#6ee7f5"/><path d="m128 392a8 8 0 0 1 -5.657-13.657l56-56a8 8 0 1 1 11.314 11.314l-56 56a7.976 7.976 0 0 1 -5.657 2.343z" fill="#6ee7f5"/><path d="m388.34 396.34a7.974 7.974 0 0 1 -5.657-2.34l-60.34-60.34a8 8 0 0 1 11.314-11.314l60.343 60.337a8 8 0 0 1 -5.657 13.657z" fill="#6ee7f5"/><path d="m328 192a8 8 0 0 1 -5.657-13.657l60-60a8 8 0 1 1 11.314 11.314l-60 60a7.976 7.976 0 0 1 -5.657 2.343z" fill="#6ee7f5"/><circle cx="256" cy="256" fill="#d18d28" r="104"/><circle cx="88" cy="88" fill="#0bafea" r="64"/><path d="m128 136v1.97a64.036 64.036 0 0 1 -80 0v-1.97a24.006 24.006 0 0 1 24-24h32a24.006 24.006 0 0 1 24 24z" fill="#0276b4"/><circle cx="88" cy="88" fill="#0296e5" r="24"/><path d="m104 112h-32a24.006 24.006 0 0 0 -24 24v1.97a64.036 64.036 0 0 0 80 0v-1.97a24.006 24.006 0 0 0 -24-24z" fill="#0296e5"/><circle cx="88" cy="424" fill="#02a437" r="64"/><path d="m288 248a32 32 0 1 0 -57.86 18.843 49.777 49.777 0 0 1 9.86 29.317h32a48.313 48.313 0 0 1 9.621-28.994 31.834 31.834 0 0 0 6.379-19.166z" fill="#fbb540"/><path d="m240 296.16h32a0 0 0 0 1 0 0v15.84a16 16 0 0 1 -16 16 16 16 0 0 1 -16-16v-15.84a0 0 0 0 1 0 0z" fill="#cbcbcb"/><g fill="#fbb540"><path d="m256 200a8 8 0 0 1 -8-8v-16a8 8 0 0 1 16 0v16a8 8 0 0 1 -8 8z"/><path d="m224 208a7.976 7.976 0 0 1 -5.657-2.343l-8-8a8 8 0 0 1 11.314-11.314l8 8a8 8 0 0 1 -5.657 13.657z"/><path d="m288 208a8 8 0 0 1 -5.657-13.657l8-8a8 8 0 0 1 11.314 11.314l-8 8a7.976 7.976 0 0 1 -5.657 2.343z"/><circle cx="64" cy="256" r="40"/><circle cx="448" cy="256" r="40"/><circle cx="256" cy="448" r="32"/><circle cx="256" cy="64" r="32"/></g><path d="m240 296h32v8h-32z" fill="#a8a8a8"/><circle cx="424" cy="87.147" fill="#ff3444" r="64"/><circle cx="424" cy="87.147" fill="#961b20" r="24"/><path d="m440 111.147h-32a24.006 24.006 0 0 0 -24 24v1.97a64.036 64.036 0 0 0 80 0v-1.97a24.006 24.006 0 0 0 -24-24z" fill="#961b20"/><circle cx="88" cy="424" fill="#027226" r="24"/><path d="m128 472v1.97a64.036 64.036 0 0 1 -80 0v-1.97a24.006 24.006 0 0 1 24-24h32a24.006 24.006 0 0 1 24 24z" fill="#027226"/><circle cx="424" cy="424" fill="#ffd6db" r="64"/><path d="m464 472v1.97a64.036 64.036 0 0 1 -80 0v-1.97a24.006 24.006 0 0 1 24-24h32a24.006 24.006 0 0 1 24 24z" fill="#faa6b2"/><path d="m464 472v1.97a64.036 64.036 0 0 1 -80 0v-1.97a24.006 24.006 0 0 1 24-24h32a24.006 24.006 0 0 1 24 24z" fill="#faa6b2"/><circle cx="424" cy="424" fill="#faa6b2" r="24"/></g></svg>